<?xml version="1.0" standalone="no"?>
<!DOCTYPE svg PUBLIC "-//W3C//DTD SVG 20010904//EN"
 "http://www.w3.org/TR/2001/REC-SVG-20010904/DTD/svg10.dtd">
<svg version="1.0" xmlns="http://www.w3.org/2000/svg"
 width="1920.000000pt" height="1931.000000pt" viewBox="0 0 1920.000000 1931.000000"
 preserveAspectRatio="xMidYMid meet">

<g transform="translate(0.000000,1931.000000) scale(0.100000,-0.100000)"
fill="#000000" stroke="none">
<path d="M0 9655 l0 -9655 9600 0 9600 0 0 9655 0 9655 -9600 0 -9600 0 0
-9655z m7453 5750 c-3 -9 -8 -14 -10 -11 -3 3 -2 9 2 15 9 16 15 13 8 -4z
m337 -35 c0 -5 -5 -10 -11 -10 -5 0 -7 5 -4 10 3 6 8 10 11 10 2 0 4 -4 4 -10z
m-40 -18 c0 -16 -32 -52 -41 -46 -5 3 -16 1 -24 -6 -7 -6 -16 -7 -19 -2 -3 5
11 21 32 35 40 27 52 32 52 19z m-94 -71 c-10 -15 -76 -51 -76 -41 0 5 -7 7
-15 4 -8 -4 -15 -1 -15 5 0 6 12 13 28 17 15 3 36 9 47 14 27 12 37 12 31 1z
m-419 -48 c11 -7 31 -33 43 -57 20 -43 20 -46 4 -71 -18 -27 -12 -47 8 -27 36
36 38 -13 3 -64 -30 -44 -32 -57 -5 -49 16 5 20 2 20 -15 0 -11 -7 -23 -16
-27 -8 -3 -13 -12 -10 -20 8 -20 -11 -53 -32 -53 -16 -1 -15 -2 1 -14 15 -12
17 -22 12 -60 -6 -37 -13 -49 -39 -64 -22 -13 -32 -27 -34 -47 -2 -28 -2 -28
18 -10 11 10 20 23 20 28 0 16 128 135 169 158 20 11 61 38 91 60 30 22 61 39
70 37 27 -4 123 33 135 52 3 6 16 10 27 10 12 0 40 9 62 19 96 46 160 71 180
71 12 0 26 4 31 9 13 12 114 49 185 67 109 29 196 35 558 39 229 2 243 1 253
-17 6 -11 8 -75 4 -169 -5 -129 -10 -165 -35 -239 -15 -48 -31 -103 -35 -121
-8 -36 -30 -58 -57 -59 -9 0 -20 -10 -24 -22 -9 -30 -39 -72 -92 -131 -26 -28
-41 -54 -38 -63 3 -7 1 -14 -4 -14 -4 0 -11 -13 -15 -30 -4 -16 -10 -30 -15
-30 -10 0 -17 -21 -26 -75 -3 -21 -13 -44 -22 -51 -10 -8 -13 -18 -8 -35 4
-13 9 -44 11 -69 10 -104 16 -128 40 -150 14 -13 25 -19 26 -14 0 5 4 -1 9
-12 7 -17 16 -21 42 -19 18 2 32 8 30 14 -4 18 15 12 22 -6 5 -11 1 -22 -9
-29 -10 -8 -12 -14 -6 -19 6 -3 11 -2 11 3 0 5 12 17 26 27 21 14 28 14 35 4
6 -10 15 -9 46 7 21 10 39 22 41 26 2 4 9 5 16 2 7 -3 18 7 24 21 12 26 26 32
37 15 3 -5 1 -10 -4 -10 -6 0 -11 -4 -11 -10 0 -15 26 -12 40 5 7 9 32 24 54
35 40 18 41 18 44 -1 4 -26 22 -24 22 2 0 12 5 19 13 16 6 -2 20 9 29 25 10
15 24 28 32 28 7 0 19 6 25 14 6 7 30 16 53 19 22 3 53 14 67 25 30 22 77 36
109 33 12 -1 22 2 22 8 0 6 -18 11 -40 11 -23 0 -40 5 -40 11 0 8 -4 8 -14 -1
-8 -6 -30 -10 -48 -9 -18 2 -38 0 -43 -3 -15 -9 -144 -11 -184 -3 -39 9 -79
44 -62 54 7 5 0 15 -19 29 -16 13 -30 32 -30 43 0 12 -9 32 -20 46 -23 29 -26
53 -7 53 8 0 8 3 -2 9 -12 8 -13 18 -2 68 7 32 17 69 21 83 5 14 9 39 10 55 3
104 5 115 17 115 16 0 15 -11 17 141 2 69 6 131 10 137 3 6 1 22 -6 36 -9 20
-8 31 1 50 7 13 11 45 10 72 -4 44 -2 49 15 46 11 -2 26 4 33 14 16 22 72 26
293 24 92 -1 152 -6 165 -14 11 -6 45 -13 75 -14 30 -2 69 -10 85 -18 30 -15
95 -32 150 -38 48 -6 114 -26 120 -36 4 -6 10 -8 15 -5 11 7 137 -58 163 -84
6 -6 23 -11 38 -11 15 0 30 -4 34 -9 3 -6 36 -24 73 -41 37 -18 81 -47 97 -64
17 -18 55 -49 86 -68 31 -20 85 -64 119 -97 34 -34 65 -61 69 -61 4 0 13 -11
19 -25 6 -14 18 -25 26 -25 9 0 31 -13 49 -30 19 -16 39 -30 44 -30 19 0 44
-37 37 -55 -6 -14 -3 -16 15 -10 18 5 24 2 28 -14 3 -12 13 -21 22 -21 15 -1
61 -33 61 -43 0 -2 -12 -9 -27 -15 -25 -9 -48 -13 -160 -26 -37 -5 -98 -40
-112 -64 -7 -13 -12 -14 -24 -4 -12 11 -18 10 -29 -6 -7 -11 -25 -20 -43 -20
-47 -1 -193 -26 -201 -34 -4 -5 -19 -8 -34 -8 -14 0 -30 -4 -36 -9 -12 -11
-189 -44 -236 -44 -16 0 -28 -2 -28 -6 0 -3 -32 -4 -71 -3 -39 2 -69 0 -66 -5
3 -4 -20 -8 -51 -8 -32 -1 -111 -4 -177 -9 -66 -5 -136 -8 -155 -8 l-35 1 27
-15 c15 -8 58 -16 95 -19 37 -3 85 -8 107 -13 34 -6 169 -2 376 12 76 6 144
18 220 42 30 9 77 17 103 16 38 0 47 3 45 15 -4 19 65 46 105 40 15 -2 27 0
27 5 0 11 68 38 96 38 13 0 29 9 36 20 13 21 48 28 48 10 0 -18 18 -10 25 10
4 11 11 17 17 14 5 -4 20 -2 31 3 12 6 43 20 70 32 26 11 54 21 62 21 16 0 21
-15 8 -23 -5 -2 -2 -2 5 -1 13 4 52 -30 52 -44 0 -4 14 -16 30 -26 19 -11 33
-29 37 -47 4 -20 11 -29 25 -29 11 0 28 -5 39 -11 24 -12 79 -69 79 -80 0 -12
27 -46 72 -90 25 -25 43 -36 56 -32 22 5 39 -24 22 -41 -13 -13 -13 -49 1 -63
8 -8 6 -13 -8 -17 -29 -9 -54 -74 -47 -121 4 -28 3 -36 -4 -26 -8 11 -11 9
-17 -10 -4 -13 -16 -36 -26 -51 -11 -14 -19 -35 -19 -45 0 -10 -9 -36 -19 -57
-11 -21 -17 -44 -14 -52 3 -8 0 -14 -6 -14 -6 0 -11 9 -11 20 0 28 -18 25 -32
-6 -10 -22 -10 -28 5 -39 21 -15 22 -29 0 -46 -15 -12 -16 -12 -10 4 5 12 1
17 -13 17 -26 0 -32 -14 -15 -36 19 -26 19 -32 -5 -39 -11 -3 -20 -14 -20 -24
0 -10 -11 -31 -25 -47 -14 -16 -25 -32 -25 -36 0 -4 -16 -32 -34 -62 -42 -65
-53 -101 -36 -121 7 -9 10 -18 6 -22 -3 -3 -6 -1 -6 5 0 7 -11 12 -25 12 -27
0 -28 -3 -16 -35 6 -14 2 -24 -14 -37 -13 -10 -26 -29 -29 -44 -5 -17 -12 -24
-21 -20 -16 6 -16 -15 0 -26 10 -8 -15 -12 -49 -8 -15 1 -17 -2 -11 -17 4 -10
9 -25 12 -34 5 -18 -58 -113 -94 -142 -12 -9 -23 -27 -25 -40 -2 -17 -9 -22
-30 -21 -18 1 -28 -4 -28 -13 0 -9 6 -13 15 -9 24 9 17 -19 -10 -40 -14 -10
-25 -26 -25 -35 0 -9 -12 -21 -26 -28 -16 -7 -24 -17 -21 -25 5 -13 -18 -31
-34 -28 -3 0 -4 -11 -1 -26 3 -22 -8 -40 -56 -92 -33 -36 -71 -78 -84 -94 -14
-16 -33 -30 -44 -31 -33 -4 -55 -17 -65 -39 -26 -59 -46 -78 -99 -98 -65 -24
-174 -42 -178 -30 -1 5 -8 17 -15 26 -11 15 -15 14 -55 -5 -32 -16 -46 -19
-55 -10 -6 6 -25 11 -42 11 -16 0 -46 5 -65 10 -19 6 -55 13 -80 15 -25 3 -64
12 -87 21 -24 8 -47 13 -52 10 -12 -8 -86 17 -161 51 -30 15 -76 28 -102 31
-27 2 -48 8 -48 12 0 4 -27 10 -61 13 -33 3 -68 12 -77 20 -9 8 -52 20 -94 27
-43 7 -78 16 -78 19 0 4 -21 8 -47 9 -26 1 -50 7 -53 13 -5 7 -54 12 -131 13
-68 1 -131 5 -139 8 -19 8 -110 27 -130 27 -52 1 -146 16 -152 24 -4 7 -15 4
-32 -6 -28 -19 -51 -23 -41 -7 3 5 -12 21 -34 35 -35 22 -52 25 -126 25 -82 0
-86 1 -95 25 -5 14 -14 25 -20 25 -6 0 -16 -11 -22 -25 -14 -32 -25 -31 -54 3
-13 15 -24 22 -24 15 0 -11 -38 -29 -50 -24 -3 1 -4 10 -2 19 2 15 0 14 -12
-2 -9 -10 -33 -27 -56 -37 -22 -10 -40 -23 -40 -28 0 -6 -17 -10 -37 -9 -20 1
-39 -4 -41 -10 -2 -6 -19 -16 -37 -22 -25 -8 -33 -16 -29 -28 2 -9 -1 -7 -7 6
-8 15 -21 22 -41 22 -33 0 -37 16 -5 25 33 9 131 58 135 67 2 4 9 8 15 8 20 0
59 48 46 56 -6 3 -15 1 -19 -6 -6 -9 -9 -9 -15 0 -4 7 1 13 14 17 27 7 27 20
0 28 -13 5 -25 2 -30 -6 -4 -7 -11 -10 -15 -7 -4 4 -15 3 -25 -3 -22 -11 -24
-2 -6 22 7 9 18 14 25 12 16 -6 16 14 -1 20 -17 6 -51 75 -50 99 1 9 -8 19
-22 22 -13 3 -39 22 -58 41 l-34 35 -11 -24 c-12 -27 -7 -36 20 -36 10 0 21
-7 24 -15 4 -9 14 -14 23 -13 10 2 17 -5 19 -22 2 -14 8 -29 14 -35 7 -7 9 -6
5 1 -3 6 -1 11 6 11 7 0 13 -17 14 -39 3 -41 1 -43 -28 -27 -27 14 -59 2 -59
-22 0 -13 -7 -19 -24 -19 -35 0 -56 10 -56 26 0 8 -5 14 -10 14 -6 0 -8 10 -4
24 3 13 1 27 -6 31 -15 9 -40 -13 -34 -29 7 -19 -46 -27 -72 -11 -16 10 -24
11 -44 0 -20 -11 -29 -11 -50 0 -14 7 -30 10 -36 8 -6 -2 -17 3 -24 12 -7 8
-23 15 -35 15 -19 0 -22 4 -18 23 4 21 4 22 -11 3 -25 -31 -3 -81 38 -88 27
-4 66 -45 66 -68 0 -13 7 -20 19 -20 36 0 42 -52 7 -68 -24 -11 -39 -44 -51
-114 -4 -25 -12 -39 -25 -43 -11 -4 -18 -11 -14 -16 3 -5 10 -7 15 -4 20 13
20 -26 0 -51 -12 -15 -21 -31 -21 -36 0 -16 -127 -138 -143 -138 -9 0 -19 -5
-22 -11 -4 -6 -13 -8 -21 -5 -7 3 -17 -2 -22 -11 -5 -8 -24 -16 -43 -18 -19
-2 -34 -4 -34 -5 0 -1 -11 -3 -25 -6 -14 -2 -46 -9 -72 -15 -26 -6 -51 -8 -57
-5 -5 3 -32 -2 -60 -11 -38 -12 -55 -13 -63 -5 -8 8 -17 8 -32 0 -33 -18 -146
-17 -157 2 -8 11 -11 12 -15 3 -8 -18 -24 -16 -24 2 0 18 -14 19 -28 2 -17
-20 -259 -17 -272 3 -6 10 -24 14 -52 13 -24 0 -48 3 -55 9 -6 5 -27 6 -46 3
-21 -4 -37 -3 -42 4 -3 6 -11 9 -16 5 -6 -3 -9 2 -7 12 2 12 -3 19 -12 19 -8
0 -19 6 -23 13 -6 8 -18 11 -32 8 -14 -4 -28 0 -36 11 -13 15 -74 46 -94 47
-5 1 -11 10 -13 20 -3 13 0 17 11 13 8 -3 24 5 37 18 22 24 22 24 1 18 -11 -3
-21 -9 -21 -13 0 -5 -8 -7 -17 -5 -10 2 -20 4 -23 4 -2 1 1 6 8 13 15 15 16
48 2 48 -5 0 -10 -7 -10 -15 0 -9 -9 -15 -24 -15 -13 0 -26 -7 -30 -15 -3 -8
-10 -15 -16 -15 -5 0 -10 7 -10 15 0 8 6 15 14 15 8 0 17 8 20 18 9 27 7 37
-7 37 -16 0 -67 52 -67 69 0 8 -8 17 -17 20 -15 6 -15 8 -3 16 10 7 11 10 3
10 -7 0 -13 9 -13 20 0 11 -7 23 -15 26 -10 4 -13 13 -10 25 5 14 1 19 -13 19
-15 0 -18 6 -14 28 3 22 -2 31 -21 41 -20 11 -24 20 -21 43 4 33 -14 68 -35
68 -8 0 -11 7 -8 19 3 13 0 18 -8 15 -19 -8 -25 34 -9 64 21 41 18 55 -11 50
-14 -3 -28 -1 -31 3 -3 5 0 9 5 9 6 0 11 5 11 10 0 6 -11 3 -25 -6 -23 -15
-25 -15 -31 0 -3 9 -1 30 6 47 10 24 10 35 0 54 -12 22 -11 40 5 93 6 18 4 21
-9 16 -13 -5 -16 0 -16 24 0 17 -6 32 -12 35 -10 3 -8 9 5 24 21 24 21 27 1
48 -13 13 -14 21 -6 39 13 29 6 147 -9 157 -7 4 -10 24 -7 50 3 24 -1 60 -8
80 -8 24 -9 41 -2 53 6 10 8 33 5 50 -6 40 8 69 23 46 8 -12 10 -12 10 -1 0 8
-7 19 -17 26 -16 12 -10 40 7 30 17 -11 42 47 38 89 -3 25 1 50 10 64 8 12 10
22 4 22 -5 0 -12 -7 -16 -15 -3 -8 -10 -15 -16 -15 -14 0 21 49 35 50 6 0 10
11 10 24 0 15 -5 22 -12 19 -7 -3 -13 -11 -13 -19 0 -8 -4 -14 -10 -14 -17 0
-11 23 19 82 16 31 27 59 24 62 -4 3 1 14 9 23 18 21 29 73 16 73 -5 0 -11 -8
-14 -17 -3 -10 -10 -27 -14 -38 -5 -11 -12 -30 -15 -43 -4 -12 -10 -20 -15
-17 -5 3 -10 0 -12 -7 -2 -6 -12 -9 -21 -5 -15 6 -16 10 -5 28 7 12 23 33 34
46 12 13 27 37 34 53 7 17 16 30 21 30 5 0 9 9 9 20 0 11 5 20 10 20 6 0 10
-8 10 -17 0 -13 4 -11 13 7 10 18 11 31 3 49 l-10 23 -16 -23 c-8 -13 -28 -38
-43 -56 -16 -18 -33 -48 -38 -67 -5 -19 -23 -49 -39 -66 -17 -18 -30 -37 -30
-42 0 -7 -5 -6 -14 1 -17 14 -31 -2 -38 -41 -6 -32 7 -38 17 -8 7 22 20 26 30
9 4 -6 -6 -27 -23 -48 -46 -57 -55 -136 -10 -83 8 9 19 31 23 47 l7 30 10 -25
c6 -16 12 -20 16 -13 5 7 13 9 21 3 12 -7 11 -11 -2 -25 -10 -9 -17 -23 -17
-32 0 -13 -2 -13 -17 -2 -15 13 -16 12 -11 -8 7 -25 -10 -31 -29 -12 -7 7 -12
6 -16 -5 -4 -9 -2 -16 3 -16 6 0 10 -9 10 -20 0 -13 -9 -22 -26 -26 -21 -5
-24 -11 -20 -30 4 -14 2 -24 -4 -24 -5 0 -10 -7 -10 -15 0 -7 -6 -18 -13 -22
-7 -4 -18 -21 -25 -36 -7 -15 -17 -25 -22 -22 -15 9 -2 46 22 68 11 9 15 17 9
17 -16 0 -13 30 4 36 10 4 15 19 14 48 0 39 -1 40 -12 16 -6 -14 -17 -31 -24
-38 -7 -7 -13 -25 -13 -38 0 -14 -11 -36 -25 -50 -29 -29 -31 -36 -10 -28 11
5 13 2 9 -10 -3 -9 -1 -16 5 -16 22 0 11 -49 -15 -66 -17 -12 -21 -19 -14 -24
9 -5 9 -9 1 -14 -13 -8 -15 -46 -3 -46 4 0 13 5 20 12 9 9 12 4 12 -25 0 -20
-7 -42 -15 -49 -9 -7 -22 -19 -30 -26 -8 -7 -20 -11 -27 -10 -7 2 -13 -6 -14
-17 -2 -32 -15 -65 -25 -65 -11 0 -11 16 -3 59 4 17 13 31 21 31 7 0 16 14 20
30 3 17 9 30 14 30 5 0 9 7 9 15 0 34 -30 12 -56 -41 -15 -31 -33 -58 -41 -61
-7 -3 -11 -9 -8 -13 3 -5 -5 -16 -17 -24 -12 -9 -18 -19 -14 -23 5 -5 11 -2
13 5 4 12 33 18 33 7 0 -3 -9 -15 -20 -27 -11 -12 -20 -34 -20 -48 0 -15 -7
-41 -16 -58 -9 -18 -13 -41 -9 -53 7 -20 7 -20 22 -2 13 17 14 16 7 -12 -3
-16 -7 -35 -7 -42 0 -7 -5 -11 -10 -10 -13 3 -33 -50 -23 -60 4 -4 11 -1 15 6
7 10 13 11 30 2 27 -15 27 -31 0 -28 -12 1 -24 -4 -26 -10 -3 -7 2 -13 10 -13
17 0 30 -71 14 -81 -8 -6 -9 -20 -5 -101 0 -17 7 -28 15 -28 8 0 13 -6 10 -12
-2 -7 -10 -12 -16 -11 -16 4 -14 -12 3 -27 8 -6 12 -18 9 -26 -3 -9 1 -14 12
-14 11 0 15 -5 11 -15 -3 -8 -1 -15 4 -15 6 0 10 8 10 17 0 13 3 14 12 5 17
-17 73 -15 88 3 9 11 17 12 30 5 28 -15 39 -12 33 9 -3 12 3 24 18 35 29 20
39 20 39 1 0 -8 7 -15 15 -15 22 0 19 -43 -6 -74 -16 -20 -19 -30 -10 -39 8
-8 11 -7 11 6 0 22 40 39 58 25 15 -13 16 -39 1 -35 -6 1 -13 -3 -15 -9 -3 -7
10 -9 36 -7 29 2 42 -1 46 -12 4 -8 11 -12 16 -9 13 9 28 -15 28 -45 0 -20 3
-22 12 -13 7 7 16 12 20 12 13 0 9 -28 -5 -37 -7 -4 -21 -25 -31 -45 -9 -21
-21 -38 -26 -38 -6 0 -10 -4 -10 -9 0 -4 12 -6 26 -3 19 3 26 0 30 -14 5 -19
74 -54 107 -54 9 0 17 -7 17 -15 0 -11 -17 -8 -82 16 -46 17 -97 35 -114 39
-16 4 -42 15 -57 25 -22 14 -25 20 -16 31 8 10 8 14 0 14 -6 0 -11 -4 -11 -10
0 -16 -58 -12 -85 6 -13 9 -29 13 -35 9 -6 -4 -17 -1 -25 5 -12 10 -18 10 -31
-1 -13 -11 -17 -10 -26 4 -6 12 -16 16 -28 12 -12 -4 -27 2 -39 14 -11 11 -23
16 -26 11 -4 -6 -23 -10 -44 -10 -26 0 -44 -7 -57 -21 -10 -12 -28 -25 -38
-29 -14 -5 -20 -17 -20 -40 -1 -18 -7 -35 -13 -37 -8 -3 -13 5 -13 22 0 16 -4
24 -11 20 -23 -15 -84 69 -73 99 4 12 2 15 -9 11 -16 -7 -31 31 -16 41 6 4 6
10 0 18 -11 13 -24 126 -22 185 1 19 9 43 18 53 15 17 15 18 0 18 -22 0 -22
26 1 39 15 9 15 10 1 11 -14 0 -15 4 -5 33 6 17 15 38 19 45 5 7 4 12 -2 12
-6 0 -8 16 -5 38 2 20 6 61 9 89 2 29 9 62 15 72 5 11 10 31 10 44 0 13 9 36
20 50 11 14 24 52 29 89 9 63 40 132 65 141 8 3 17 23 21 44 7 40 34 93 47 93
4 0 8 7 8 15 0 28 40 95 56 95 13 0 11 -5 -6 -30 -18 -26 -19 -30 -5 -30 12 0
15 -6 10 -20 -5 -15 -3 -18 9 -14 19 7 20 16 5 31 -7 7 -8 20 -3 34 4 13 7 28
6 32 -1 4 5 15 13 24 9 8 14 21 11 28 -6 16 20 53 30 42 4 -4 2 -13 -4 -19
-20 -20 -15 -47 8 -41 11 3 20 1 20 -5 0 -12 -28 -24 -40 -17 -5 3 -5 -7 -1
-22 4 -15 12 -28 19 -31 7 -2 10 2 6 12 -4 10 1 19 12 23 21 9 29 44 12 54 -7
4 -6 14 2 28 13 26 37 22 32 -4 -3 -16 -2 -17 12 -2 9 8 16 19 16 23 0 4 7 12
15 18 8 6 17 27 20 46 3 19 2 29 -1 22 -5 -10 -9 -10 -20 -1 -18 15 -18 33 2
49 8 8 14 9 12 4 -2 -5 2 -10 7 -12 6 -2 14 12 19 32 5 20 17 36 28 39 10 3
18 14 18 25 0 10 9 27 20 37 11 10 20 27 20 37 0 15 5 18 19 13 11 -3 23 0 27
7 13 20 16 58 4 58 -5 0 -10 5 -10 10 0 17 114 158 133 165 9 4 17 13 17 21 0
8 34 49 75 92 42 43 82 88 91 100 8 12 22 22 30 22 8 0 19 11 24 25 6 15 17
25 30 25 12 0 24 9 30 24 4 13 20 26 34 30 14 3 26 11 26 16 0 6 11 15 25 20
14 5 25 14 25 19 0 11 66 51 86 51 8 0 14 9 14 20 0 12 10 24 23 29 13 5 30
16 38 23 8 8 35 24 61 37 26 12 59 32 74 44 19 14 29 17 32 9 6 -18 19 -14 25
7 5 19 40 39 112 62 22 7 49 19 60 26 11 7 29 13 40 13 11 0 31 7 43 16 13 9
29 13 37 10 7 -2 19 2 25 9 7 8 38 22 69 32 31 9 63 22 71 29 8 6 26 15 40 19
42 11 94 39 111 59 21 25 190 41 181 17 -3 -9 -1 -12 6 -7 6 3 13 2 17 -4 10
-17 58 0 87 30 28 30 76 59 118 70 23 6 78 -10 127 -37z m147 -18 c-6 -16 -24
-21 -24 -7 0 11 11 22 21 22 5 0 6 -7 3 -15z m69 -62 c-20 -18 -42 -33 -49
-33 -8 0 -11 -6 -8 -14 6 -15 -32 -46 -56 -46 -10 1 -8 7 10 22 14 11 24 27
22 35 -2 8 5 21 15 28 17 13 17 14 1 20 -25 10 -22 21 10 33 81 32 112 6 55
-45z m177 37 c0 -5 -5 -10 -11 -10 -5 0 -7 5 -4 10 3 6 8 10 11 10 2 0 4 -4 4
-10z m-270 -194 c0 -3 -4 -8 -10 -11 -5 -3 -10 -1 -10 4 0 6 5 11 10 11 6 0
10 -2 10 -4z m-55 -194 c-8 -9 -25 20 -18 31 3 5 10 2 15 -7 6 -10 7 -20 3
-24z m1457 -472 c-18 -32 -35 -34 -40 -7 -2 10 6 21 20 26 36 15 38 13 20 -19z
m-3522 -356 c0 -3 -7 -12 -15 -20 -13 -14 -15 -13 -15 5 0 12 6 21 15 21 8 0
15 -3 15 -6z m-203 -190 c1 -5 -4 -18 -12 -28 -21 -28 -42 -7 -25 24 11 21 31
23 37 4z m233 -29 c0 -8 -4 -15 -10 -15 -5 0 -10 7 -10 15 0 8 5 15 10 15 6 0
10 -7 10 -15z m-40 -40 c0 -29 -17 -42 -22 -18 -6 25 3 54 13 47 5 -3 9 -16 9
-29z m-35 -36 c11 -16 -4 -61 -17 -53 -6 4 -20 -4 -32 -19 l-21 -26 0 24 c0
14 3 25 7 25 4 0 10 10 14 23 10 33 36 47 49 26z m-85 -125 c0 -8 -4 -14 -9
-14 -5 0 -14 -14 -20 -31 -6 -17 -15 -28 -21 -24 -13 8 -13 45 0 45 6 0 10 8
10 18 0 10 3 21 6 25 10 9 34 -4 34 -19z m-59 -137 c-10 -9 -11 -8 -5 6 3 10
9 15 12 12 3 -3 0 -11 -7 -18z m-5 -53 c-4 -9 -9 -15 -11 -12 -3 3 -3 13 1 22
4 9 9 15 11 12 3 -3 3 -13 -1 -22z m-21 -71 c-4 -16 -7 -36 -7 -45 1 -15 -1
-15 -17 -1 -21 18 -17 60 8 66 9 3 18 5 20 6 2 0 0 -11 -4 -26z m-50 -63 c3
-5 2 -10 -4 -10 -5 0 -13 5 -16 10 -3 6 -2 10 4 10 5 0 13 -4 16 -10z m-85
-21 c0 -6 -4 -7 -10 -4 -5 3 -10 11 -10 16 0 6 5 7 10 4 6 -3 10 -11 10 -16z
m220 -23 c0 -8 -4 -18 -10 -21 -5 -3 -10 3 -10 14 0 12 5 21 10 21 6 0 10 -6
10 -14z m-162 -54 c27 5 26 -35 -2 -65 -14 -15 -23 -34 -20 -42 5 -11 2 -13
-11 -9 -10 4 -20 1 -25 -6 -4 -7 -14 -10 -21 -8 -9 3 -3 10 16 21 17 9 24 16
18 17 -21 0 -15 31 7 37 11 3 20 14 20 24 0 23 -18 21 -42 -6 -20 -23 -22 -17
-8 20 5 14 14 24 19 20 5 -3 13 5 17 17 l8 23 4 -23 c2 -14 9 -22 20 -20z m62
18 c0 -5 -2 -10 -4 -10 -3 0 -8 5 -11 10 -3 6 -1 10 4 10 6 0 11 -4 11 -10z
m-84 -187 c-10 -10 -19 5 -10 18 6 11 8 11 12 0 2 -7 1 -15 -2 -18z m-10 -40
c-10 -10 -19 5 -10 18 6 11 8 11 12 0 2 -7 1 -15 -2 -18z m72 -51 c2 -7 -3
-12 -12 -12 -9 0 -16 7 -16 16 0 17 22 14 28 -4z m242 -18 c0 -8 -4 -12 -10
-9 -5 3 -10 10 -10 16 0 5 5 9 10 9 6 0 10 -7 10 -16z m-295 -54 c3 -5 2 -10
-4 -10 -5 0 -13 5 -16 10 -3 6 -2 10 4 10 5 0 13 -4 16 -10z m-59 -37 c-11
-11 -19 6 -11 24 8 17 8 17 12 0 3 -10 2 -21 -1 -24z m264 -4 c0 -5 -4 -9 -10
-9 -5 0 -10 7 -10 16 0 8 5 12 10 9 6 -3 10 -10 10 -16z m100 12 c0 -12 -20
-25 -27 -18 -7 7 6 27 18 27 5 0 9 -4 9 -9z m-278 -29 c4 -12 -1 -18 -13 -19
-16 -2 -17 2 -9 18 13 24 16 24 22 1z m370 -7 c0 -5 -5 -11 -11 -13 -6 -2 -11
4 -11 13 0 9 5 15 11 13 6 -2 11 -8 11 -13z m-435 -17 c-3 -8 -6 -5 -6 6 -1
11 2 17 5 13 3 -3 4 -12 1 -19z m124 -8 c-21 -19 -41 -26 -41 -16 0 12 33 36
48 36 14 -1 12 -5 -7 -20z m229 10 c0 -5 -7 -10 -15 -10 -8 0 -15 -4 -15 -8 0
-5 -7 -17 -15 -28 -13 -17 -14 -17 -15 -2 0 10 10 26 22 38 24 22 38 26 38 10z
m-310 -38 c0 -19 -32 -51 -46 -45 -13 5 -12 9 8 29 24 24 38 30 38 16z m304
-46 c-7 -17 -34 -23 -34 -6 0 9 32 31 38 26 1 -2 0 -11 -4 -20z m-262 -8 c-7
-7 -12 -8 -12 -2 0 14 12 26 19 19 2 -3 -1 -11 -7 -17z m2485 -33 c8 -22 -6
-33 -17 -15 -13 20 -12 30 0 30 6 0 13 -7 17 -15z m18 -105 c3 -5 1 -10 -4
-10 -6 0 -11 5 -11 10 0 6 2 10 4 10 3 0 8 -4 11 -10z m-125 -31 c0 -7 8 -18
18 -25 16 -13 16 -15 -2 -29 -11 -8 -26 -15 -33 -15 -7 0 -13 7 -13 15 0 8 -7
15 -15 15 -8 0 -15 5 -15 10 0 6 6 10 14 10 8 0 16 7 20 15 6 18 26 20 26 4z
m511 -32 c-10 -9 -11 -8 -5 6 3 10 9 15 12 12 3 -3 0 -11 -7 -18z m-378 -34
c11 -10 -13 -33 -34 -33 -24 0 -25 27 -1 33 27 7 28 7 35 0z m42 -3 c-3 -5
-10 -10 -16 -10 -5 0 -9 5 -9 10 0 6 7 10 16 10 8 0 12 -4 9 -10z m-269 -26
c-4 -9 -9 -15 -11 -12 -3 3 -3 13 1 22 4 9 9 15 11 12 3 -3 3 -13 -1 -22z
m-1897 -16 c11 -10 13 -10 7 0 -4 6 -2 12 3 12 17 0 13 -21 -6 -36 -11 -8 -13
-13 -5 -14 6 0 12 -5 12 -11 0 -6 -10 -9 -22 -7 -17 2 -23 10 -24 28 -3 41 10
51 35 28z m276 -198 c8 -13 -20 -24 -41 -16 -20 8 -9 26 16 26 10 0 22 -5 25
-10z m3045 -1349 c0 -6 -4 -13 -10 -16 -5 -3 -10 1 -10 9 0 9 5 16 10 16 6 0
10 -4 10 -9z m0 -81 c0 -5 -4 -10 -10 -10 -5 0 -10 5 -10 10 0 6 5 10 10 10 6
0 10 -4 10 -10z m-110 -34 c0 -8 -4 -18 -10 -21 -5 -3 -10 3 -10 14 0 12 5 21
10 21 6 0 10 -6 10 -14z m116 -20 c15 -15 20 -41 6 -32 -4 2 -9 -4 -9 -15 -1
-10 2 -19 8 -19 5 0 9 5 9 10 0 6 6 10 14 10 8 0 19 14 25 31 13 37 48 38 43
1 -3 -21 -2 -21 39 -7 51 18 50 19 42 -2 -3 -10 -3 -15 2 -11 4 4 14 1 21 -7
8 -8 21 -12 28 -9 9 3 13 -5 14 -25 1 -28 32 -90 32 -64 0 15 60 78 74 78 27
1 54 17 59 35 3 11 13 20 22 20 12 0 15 -6 10 -19 -3 -11 0 -29 7 -41 11 -17
11 -22 0 -29 -10 -6 -6 -11 17 -19 35 -12 42 -32 11 -32 -11 0 -20 -5 -20 -11
0 -23 36 -2 51 29 13 30 17 32 29 18 11 -14 10 -19 -3 -34 -15 -17 -14 -18 28
-20 25 -1 45 3 45 8 0 6 -7 10 -15 10 -23 0 -18 17 7 23 33 9 48 -8 34 -38 -6
-14 -17 -25 -23 -25 -15 0 -16 -9 -4 -29 12 -19 41 -6 41 19 0 11 4 20 8 20 4
0 6 -16 4 -36 -2 -19 -7 -33 -10 -30 -3 3 -11 -2 -18 -12 -11 -16 -13 -16 -32
1 -20 18 -21 18 -31 -1 -12 -23 -6 -32 26 -32 14 0 23 -6 23 -16 0 -8 5 -12
10 -9 6 4 8 10 5 15 -3 5 0 12 7 17 16 10 68 10 68 1 0 -5 9 -8 20 -8 12 0 26
-12 35 -30 22 -42 22 -45 5 -46 -34 -2 -40 -5 -40 -15 0 -7 13 -10 34 -7 l35
4 -15 -34 c-18 -43 -18 -42 6 -42 17 0 19 -4 14 -27 -4 -16 -14 -36 -22 -45
-21 -25 1 -23 23 2 21 23 32 24 85 8 41 -13 52 -34 25 -45 -13 -4 -45 -52 -45
-66 0 -2 18 -2 40 -1 l40 2 -6 -39 c-4 -26 -3 -39 5 -39 6 0 11 8 12 18 0 11
4 7 11 -10 11 -33 28 -37 28 -8 0 14 7 20 24 20 13 0 26 -5 28 -11 2 -6 14 -5
33 5 17 9 35 16 42 16 6 0 18 8 25 18 8 10 30 18 56 20 42 4 43 3 36 -24 -6
-22 -4 -26 8 -21 14 5 69 -9 93 -25 6 -3 30 -2 55 2 38 7 47 6 60 -9 22 -26
58 -33 69 -13 11 20 17 16 26 -20 8 -33 -16 -48 -45 -30 -14 9 -19 8 -24 -3
-3 -8 -1 -17 4 -20 13 -8 116 -9 129 -1 6 4 11 2 11 -3 0 -6 -4 -11 -10 -11
-5 0 -10 -7 -10 -15 0 -16 16 -20 24 -6 3 4 17 6 31 3 20 -3 24 -9 19 -24 -8
-25 13 -40 38 -27 31 17 38 0 12 -26 -21 -21 -23 -27 -12 -39 11 -13 15 -12
28 4 8 9 26 23 38 30 22 11 23 10 17 -9 -3 -12 -2 -21 3 -21 6 0 8 -9 5 -20
-3 -11 0 -20 6 -20 6 0 11 10 12 23 1 20 2 19 11 -5 5 -16 17 -29 26 -30 10 0
22 -2 29 -2 6 -1 15 -5 19 -9 13 -13 24 -7 24 13 0 11 -5 20 -12 20 -6 0 -2 9
10 20 25 24 38 25 46 5 3 -8 14 -15 24 -15 37 0 59 -51 27 -64 -8 -3 -15 -1
-15 4 0 6 -7 10 -15 10 -8 0 -15 -4 -15 -10 0 -5 5 -10 10 -10 6 0 10 -9 10
-20 0 -17 7 -20 45 -20 37 0 51 -6 81 -34 29 -27 34 -38 28 -60 -3 -14 -10
-26 -15 -26 -5 0 -9 -4 -9 -10 0 -5 9 -10 20 -10 11 0 20 5 20 11 0 7 12 0 26
-14 29 -29 26 -57 -6 -57 -11 0 -20 -4 -20 -9 0 -11 25 -21 53 -21 28 0 57
-28 57 -57 0 -34 26 -40 49 -12 15 19 22 21 32 12 10 -10 9 -14 -4 -19 -27
-10 -20 -28 16 -43 104 -45 122 -56 100 -59 -15 -2 -23 -10 -23 -23 0 -22 0
-22 34 -10 14 6 26 20 28 33 4 20 5 21 12 5 6 -12 3 -24 -8 -36 -22 -24 -20
-51 3 -51 11 0 23 5 26 10 3 6 14 10 23 10 33 0 122 43 122 59 0 18 54 46 69
37 13 -8 57 16 86 48 18 20 31 25 46 21 12 -4 27 -1 37 8 9 8 29 17 44 21 15
3 29 15 33 26 6 19 39 36 62 32 7 -2 37 15 67 38 31 22 62 40 71 40 18 0 19
12 3 28 -9 9 -7 19 10 42 12 16 22 41 22 55 0 14 9 34 19 44 21 21 34 69 33
119 -1 29 1 33 21 30 25 -3 37 -38 13 -38 -20 0 -21 -19 -1 -26 8 -4 15 -15
15 -25 0 -10 -7 -19 -15 -19 -8 0 -15 -4 -15 -9 0 -5 7 -14 15 -21 8 -7 15
-22 15 -34 1 -19 2 -19 21 7 20 26 22 27 35 10 18 -24 17 -53 -3 -75 -22 -24
-11 -33 25 -20 16 5 50 7 76 5 46 -6 47 -7 44 -36 -2 -19 2 -32 11 -35 10 -3
12 0 8 12 -10 25 9 19 47 -15 24 -20 51 -33 85 -38 28 -4 59 -15 69 -25 10 -9
22 -16 26 -16 17 0 66 -45 66 -61 0 -21 -22 -38 -28 -21 -2 7 -8 9 -13 6 -11
-6 7 -34 23 -34 5 0 22 10 38 22 28 20 31 20 48 5 10 -9 31 -17 45 -17 15 0
27 -4 27 -8 0 -4 15 -8 33 -8 48 0 268 -109 261 -129 -4 -9 1 -17 12 -22 11
-4 33 -18 51 -32 30 -23 31 -27 17 -43 -9 -9 -13 -22 -9 -27 9 -15 45 -14 45
2 0 22 16 38 33 31 9 -3 17 -12 17 -19 0 -21 17 -27 40 -13 17 11 22 11 30 -2
5 -8 7 -25 3 -37 -6 -28 13 -31 22 -4 7 23 35 35 49 21 5 -5 18 -10 28 -10 20
0 39 -37 30 -59 -4 -11 -1 -12 14 -6 25 12 95 10 103 -3 3 -6 18 -13 33 -17
15 -4 30 -16 33 -26 4 -10 13 -19 20 -19 16 0 20 -6 29 -42 5 -22 3 -26 -9
-22 -8 3 -14 9 -13 12 1 4 -2 15 -6 25 -10 21 -36 23 -36 2 0 -8 -4 -15 -9
-15 -5 0 -8 -11 -8 -25 0 -27 14 -34 23 -10 4 8 10 15 16 15 9 0 5 -71 -5 -87
-3 -4 14 -8 36 -8 47 0 51 3 41 28 -10 28 1 30 16 3 20 -39 7 -58 -35 -50 -28
5 -35 3 -35 -10 0 -11 9 -16 29 -16 17 0 33 -5 36 -10 4 -6 15 -8 25 -5 10 3
21 1 25 -5 4 -6 -10 -10 -37 -10 -24 0 -53 -3 -65 -6 -22 -6 -40 -44 -20 -44
18 1 48 26 40 33 -3 4 -1 7 5 7 15 0 15 -2 2 -35 -8 -22 -8 -26 4 -22 8 3 33
-12 59 -36 43 -40 44 -43 30 -64 -9 -13 -22 -23 -30 -23 -8 0 -11 -4 -8 -10 3
-5 -4 -20 -15 -32 -12 -13 -36 -40 -53 -60 -28 -34 -32 -35 -43 -20 -19 25
-17 32 11 32 18 0 25 5 25 19 0 11 9 23 20 26 11 3 24 14 30 24 7 15 4 20 -15
29 -22 10 -25 9 -25 -7 0 -21 -67 -94 -95 -105 -12 -4 -15 -13 -12 -27 3 -12
3 -19 1 -16 -3 3 -24 -14 -47 -38 -24 -23 -51 -44 -62 -46 -12 -3 -21 -14 -23
-27 -4 -24 -37 -48 -47 -33 -3 5 -1 12 5 16 5 3 17 21 26 40 9 19 20 32 25 29
5 -3 9 2 9 10 0 9 -9 16 -20 16 -11 0 -20 5 -20 10 0 17 -44 11 -62 -7 -9 -10
-24 -25 -34 -32 -11 -10 -13 -16 -6 -19 13 -4 17 -42 4 -42 -4 0 -13 5 -20 12
-6 6 -15 8 -19 4 -5 -5 2 -15 14 -23 25 -17 20 -43 -8 -43 -17 0 -29 -30 -11
-30 4 0 14 -4 22 -10 12 -7 10 -13 -13 -34 -14 -13 -39 -27 -54 -29 -27 -4
-27 -4 -5 -12 23 -8 30 -25 10 -25 -9 0 -9 -3 0 -12 18 -18 14 -30 -8 -23 -14
4 -20 2 -20 -9 0 -8 -8 -23 -18 -33 -25 -24 -36 -54 -17 -47 7 3 16 12 19 21
5 13 8 13 21 -1 17 -17 20 -36 5 -36 -5 0 -10 8 -10 18 0 14 -4 12 -23 -9 -12
-14 -32 -31 -45 -38 -12 -7 -20 -17 -16 -22 3 -6 -2 -16 -12 -24 -15 -11 -17
-16 -6 -26 10 -11 12 -10 12 1 0 11 3 11 12 2 10 -10 15 -7 26 10 13 23 13 23
9 -4 -5 -35 2 -35 27 -1 11 14 15 23 9 20 -5 -4 -15 5 -21 18 -7 14 -8 25 -4
25 4 0 18 3 31 7 21 5 22 4 12 -16 -10 -18 -9 -28 9 -56 l21 -33 -22 -15 c-12
-9 -18 -20 -15 -26 4 -6 -2 -19 -13 -30 -36 -36 -55 -72 -43 -80 8 -5 5 -12
-9 -24 -11 -10 -25 -15 -31 -11 -6 4 -9 1 -6 -7 3 -8 14 -14 25 -14 34 0 38
-13 14 -45 l-22 -30 31 0 c16 0 30 4 30 10 0 5 3 9 8 8 17 -5 51 14 46 26 -3
7 2 19 11 26 10 8 15 9 15 1 0 -6 -4 -11 -9 -11 -4 0 -6 -11 -3 -25 3 -20 0
-25 -16 -25 -12 0 -23 -9 -27 -19 -3 -11 -15 -23 -26 -26 -12 -4 -20 -16 -21
-33 0 -15 -2 -34 -2 -42 -1 -8 2 -18 7 -21 4 -3 4 -26 -2 -50 -5 -24 -12 -59
-15 -77 -5 -29 -4 -32 13 -22 11 5 23 24 26 42 5 19 27 51 57 80 54 53 62 57
54 30 -7 -20 29 -61 41 -48 5 4 0 12 -10 17 -9 6 -17 15 -17 22 0 7 4 6 11 -3
8 -12 9 -10 4 8 -5 19 -3 22 19 22 14 0 26 4 26 9 0 14 -23 19 -45 11 -22 -8
-45 5 -45 25 0 7 8 12 18 11 11 0 17 6 17 18 0 35 -24 28 -42 -11 -20 -41 -60
-93 -47 -60 4 12 2 17 -6 15 -7 -2 -15 3 -17 10 -3 8 1 10 11 6 12 -5 15 -2
10 10 -5 12 -2 15 10 10 15 -6 21 4 17 34 -1 7 5 15 14 18 8 3 15 13 15 21 0
8 5 11 10 8 6 -3 13 2 17 12 3 10 12 25 20 33 64 70 63 68 48 97 -8 16 -15 34
-15 41 0 6 -4 12 -10 12 -10 0 -14 -14 -11 -37 2 -15 -15 -18 -23 -4 -3 4 0
22 7 40 8 23 17 31 32 29 11 -2 21 -9 21 -15 1 -7 2 -20 3 -28 2 -25 28 -5 35
26 6 30 32 40 42 16 6 -16 -23 -87 -35 -87 -5 0 -9 -16 -8 -35 1 -22 6 -35 15
-35 7 0 10 4 7 10 -9 14 22 68 51 86 32 21 44 10 16 -15 -12 -10 -22 -28 -22
-40 0 -12 -12 -33 -27 -47 -15 -14 -28 -31 -29 -37 0 -7 -2 -21 -3 -32 0 -11
-15 -28 -31 -37 -36 -21 -41 -49 -7 -40 28 7 46 30 47 59 0 16 4 21 15 17 17
-7 20 -49 5 -59 -5 -3 -10 -15 -10 -25 0 -10 -11 -27 -25 -37 -32 -23 -39 -68
-10 -68 12 0 21 9 25 24 6 25 30 42 30 22 0 -6 -5 -11 -11 -11 -6 0 -9 -7 -5
-15 3 -8 1 -15 -4 -15 -6 0 -9 -3 -9 -7 4 -26 -2 -35 -14 -24 -16 13 -28 5
-20 -15 3 -8 0 -14 -6 -14 -7 0 -9 -9 -5 -24 3 -13 1 -27 -6 -31 -6 -4 -8 -15
-5 -25 3 -11 0 -20 -10 -24 -8 -3 -20 -17 -25 -32 -6 -14 -19 -28 -30 -31 -11
-3 -20 -9 -20 -15 0 -5 -9 -18 -19 -30 -11 -11 -17 -26 -14 -34 3 -9 13 -1 30
24 14 20 27 39 29 41 2 2 11 -2 21 -10 10 -9 14 -9 10 -2 -9 14 18 73 33 73 5
0 10 10 12 23 2 12 10 22 18 22 22 0 30 16 23 45 -3 14 -2 22 2 18 5 -4 14 -3
21 3 9 7 14 6 20 -2 4 -7 3 -14 -4 -17 -12 -4 -5 -32 9 -32 5 0 9 7 9 15 0 9
9 15 21 15 17 0 19 -3 11 -13 -6 -7 -9 -22 -6 -34 5 -18 0 -21 -43 -28 -69
-10 -98 -38 -49 -47 19 -4 26 0 30 16 9 34 24 5 19 -36 -4 -28 -9 -35 -22 -31
-13 4 -12 2 3 -11 22 -18 15 -66 -9 -66 -8 0 -15 -9 -15 -20 0 -11 -4 -20 -8
-20 -5 0 -15 -19 -22 -41 -9 -25 -22 -44 -33 -47 -14 -3 -18 -11 -14 -28 2
-13 -2 -29 -9 -35 -11 -9 -14 -8 -14 0 0 7 -10 11 -22 9 -15 -2 -22 -9 -20
-19 3 -20 -19 -40 -47 -42 -22 -1 -35 -22 -25 -38 17 -28 10 -60 -17 -79 -15
-11 -30 -16 -33 -11 -3 5 -15 7 -26 4 -11 -3 -17 -10 -14 -15 3 -5 13 -7 21
-4 30 12 6 -13 -55 -58 -34 -25 -67 -46 -72 -46 -6 0 -10 -4 -10 -10 0 -5 -6
-10 -14 -10 -8 0 -23 -10 -33 -23 -10 -12 -30 -28 -46 -34 -15 -7 -32 -24 -38
-37 -6 -13 -19 -27 -28 -30 -41 -14 -96 -56 -99 -74 -2 -15 -28 -34 -89 -64
-47 -24 -89 -51 -95 -61 -13 -25 -112 -87 -140 -87 -13 0 -36 -7 -52 -15 -15
-8 -39 -15 -51 -15 -37 0 -56 -11 -66 -37 -7 -19 -14 -22 -35 -19 -22 4 -34
-2 -62 -34 -21 -25 -43 -40 -57 -40 -17 0 -23 -6 -23 -22 -1 -45 -15 -83 -40
-105 -13 -13 -28 -21 -31 -18 -4 2 -20 -7 -36 -21 -16 -14 -35 -22 -42 -19 -8
2 -17 -3 -20 -13 -4 -9 -12 -23 -19 -29 -7 -7 -14 -16 -16 -20 -6 -15 -68 -54
-77 -49 -5 3 -14 -1 -21 -9 -8 -9 -21 -13 -32 -9 -11 3 -27 -1 -36 -9 -9 -8
-35 -20 -57 -28 -22 -7 -55 -24 -73 -37 -20 -15 -45 -23 -65 -22 -47 3 -77
-10 -77 -31 0 -14 -7 -19 -26 -19 -22 0 -24 2 -14 15 7 8 -8 4 -37 -10 -26
-14 -56 -22 -65 -19 -12 3 -18 0 -18 -10 0 -11 -8 -16 -27 -14 -54 3 -84 -2
-77 -13 5 -8 1 -8 -14 0 -12 7 -23 7 -26 2 -4 -5 0 -11 6 -14 7 -3 3 -4 -8 -4
-13 1 -20 6 -17 13 8 21 -14 25 -46 7 -18 -10 -29 -24 -26 -31 3 -9 -1 -11
-15 -7 -10 3 -32 -1 -48 -9 -24 -12 -33 -13 -53 -2 -14 7 -35 9 -49 6 -31 -8
-61 -7 -78 4 -9 5 -21 0 -33 -13 -21 -22 -40 -28 -106 -33 -28 -2 -43 1 -43 8
0 15 -23 12 -44 -5 -16 -13 -40 -6 -31 9 12 20 -19 21 -45 2 -16 -12 -41 -22
-57 -22 -71 -1 -111 -6 -143 -18 -56 -19 -120 -23 -127 -6 -3 8 -9 12 -14 9
-4 -3 -120 2 -256 11 -136 9 -288 17 -338 19 -173 5 -290 5 -337 1 -26 -3 -50
0 -54 5 -3 5 -9 7 -14 4 -5 -3 -20 -1 -34 5 -14 5 -59 12 -98 15 -97 7 -131
15 -145 34 -11 14 -12 14 -13 -1 0 -11 -8 -18 -18 -18 -26 0 -34 11 -20 28 10
12 7 19 -17 38 -39 31 -78 32 -73 2 4 -26 28 -37 28 -13 0 15 3 15 15 5 9 -7
13 -15 10 -18 -3 -3 0 -11 7 -19 10 -12 7 -13 -18 -7 -16 3 -34 12 -39 19 -7
8 -16 10 -26 5 -10 -6 -25 -4 -42 5 -14 7 -28 11 -31 7 -6 -5 -87 27 -96 39
-3 3 -18 9 -33 13 -16 4 -39 17 -52 30 -13 13 -35 26 -50 30 -14 4 -23 11 -20
16 3 6 -1 10 -10 10 -22 0 -75 41 -75 58 0 9 -7 11 -20 7 -11 -4 -20 -2 -20 4
0 6 -11 13 -25 17 -14 3 -25 13 -25 21 0 11 -7 13 -30 8 -23 -5 -32 -3 -36 10
-4 9 -13 14 -20 11 -8 -3 -18 3 -24 14 -8 15 -6 21 7 30 17 11 17 11 1 6 -10
-3 -25 -9 -33 -12 -8 -3 -15 -1 -15 5 0 6 -11 11 -25 11 -14 0 -25 2 -25 4 0
2 -3 12 -7 21 -5 14 -2 16 15 10 29 -9 28 9 0 23 -13 6 -37 20 -54 32 l-31 20
0 -25 c0 -14 5 -25 12 -25 6 0 22 -11 34 -24 28 -29 11 -46 -18 -17 -10 10
-27 21 -38 23 -18 4 -21 23 -9 63 5 16 -3 26 -45 50 -28 17 -60 39 -70 50 -17
17 -21 18 -29 5 -8 -13 -12 -12 -27 4 -13 13 -15 20 -5 23 6 3 9 9 6 15 -4 6
-9 6 -14 -2 -6 -10 -15 -7 -39 9 -17 12 -35 20 -41 16 -16 -10 -49 13 -66 46
-9 18 -21 28 -29 26 -7 -3 -21 0 -31 7 -11 7 -31 16 -46 20 -24 5 -28 3 -28
-14 0 -11 -4 -20 -10 -20 -5 0 -10 5 -10 10 0 6 -6 10 -14 10 -30 0 -25 19 9
36 45 21 46 38 2 30 -26 -5 -40 -1 -61 15 -22 17 -29 19 -42 9 -21 -18 -29 -5
-16 25 18 40 15 49 -13 31 -33 -22 -35 -21 -35 13 0 34 -19 51 -31 29 -8 -14
-14 -13 -51 6 -30 14 -38 22 -25 24 18 4 23 27 7 37 -5 3 -10 16 -10 27 0 20
-1 20 -19 4 -26 -24 -66 -18 -66 11 0 11 -3 25 -7 29 -5 4 -8 20 -8 34 0 20
-10 35 -34 54 -19 14 -38 26 -42 26 -14 0 -74 63 -74 77 0 7 -9 22 -20 33 -11
11 -23 34 -27 50 -5 27 -7 28 -18 13 -11 -15 -14 -14 -31 13 -10 16 -29 41
-43 55 -35 35 -51 64 -51 95 0 21 -3 24 -14 15 -18 -15 -72 51 -68 84 2 17 -3
24 -22 29 -19 5 -26 13 -26 30 0 15 -7 26 -20 29 -11 3 -22 13 -26 24 -3 10
-10 25 -15 33 -5 8 -13 24 -18 35 -6 11 -19 34 -30 50 -12 17 -21 37 -21 45 0
8 -6 27 -14 42 -35 67 -56 139 -46 158 13 25 13 27 -5 27 -8 0 -15 -10 -16
-21 0 -21 0 -21 -9 1 -5 12 -18 27 -30 33 -15 8 -19 17 -14 36 4 16 1 31 -10
43 -9 10 -20 36 -23 57 -4 22 -12 44 -19 49 -6 6 -14 21 -17 35 -3 14 -19 63
-37 110 -32 87 -70 273 -70 346 0 22 -5 45 -11 51 -8 8 -8 20 -2 39 6 18 4 46
-7 87 -12 47 -12 61 -2 64 14 5 16 33 2 33 -5 0 -10 14 -10 30 0 18 -5 30 -13
30 -20 0 -50 69 -37 85 6 7 8 25 4 40 -5 19 -1 32 15 49 18 19 19 27 11 56
-13 44 -13 53 0 45 6 -3 10 1 10 9 0 9 7 16 16 16 12 0 14 9 12 38 -2 31 -7
37 -26 38 -31 2 -34 7 -39 61 -3 42 0 52 26 81 17 17 35 32 41 32 13 0 13 13
-1 27 -8 8 -5 14 10 22 14 8 21 21 21 41 0 31 6 36 29 21 8 -6 12 -18 8 -31
-4 -17 -3 -20 6 -11 6 6 19 11 28 11 9 0 20 7 23 17 6 15 8 14 20 -2 16 -22
71 -13 62 10 -3 8 -1 17 3 19 4 3 6 28 3 56 -4 43 -2 50 13 50 13 0 16 6 12
20 -9 35 49 88 108 99 36 7 52 6 58 -2 6 -9 10 -9 14 1 2 6 16 12 29 12 13 0
24 5 24 11 0 7 -11 9 -29 6 -38 -8 -50 18 -22 45 28 25 51 23 51 -5 0 -13 6
-31 13 -41 13 -17 14 -17 31 -1 9 10 25 15 36 12 11 -3 23 -1 26 5 3 5 12 7
20 4 7 -3 29 1 49 10 27 11 35 20 35 40 0 21 3 24 14 15 20 -17 44 14 29 37
-11 18 -6 82 7 82 4 0 7 -17 6 -37 -1 -38 28 -88 45 -77 5 2 6 33 2 68 l-6 64
33 -4 c28 -3 32 -1 27 16 -3 13 0 20 8 20 10 0 12 -10 8 -35 -7 -42 12 -72 33
-54 10 8 11 16 3 30 -9 17 -5 23 13 20 4 0 16 15 28 34 13 21 30 35 41 35 12
0 27 13 37 32 9 18 29 45 45 61 15 16 27 35 27 43 0 8 10 14 25 14 18 0 25 5
25 20 0 11 5 20 10 20 6 0 10 -13 10 -30 0 -16 4 -30 9 -30 5 0 16 -3 24 -6
11 -4 27 12 51 51 20 31 48 60 62 65 14 6 28 19 31 30 4 15 11 19 25 14 13 -4
28 2 45 18 18 16 27 19 30 11 6 -16 53 -17 53 -2 0 6 -7 9 -15 5 -8 -3 -15 -2
-15 3 0 16 13 21 27 9 11 -9 20 -7 41 9 15 11 44 26 66 34 21 8 41 20 43 26 3
7 10 13 15 13 6 0 6 -6 -2 -15 -11 -14 -50 -85 -50 -93 0 -2 7 -2 15 2 21 8
19 -9 -8 -52 -47 -75 -52 -90 -14 -50 19 20 37 43 40 50 8 18 8 -32 1 -59 -4
-14 -14 -23 -25 -23 -21 0 -26 -16 -7 -22 19 -7 -6 -64 -27 -60 -13 3 -16 -1
-11 -13 3 -9 6 -21 6 -26 0 -5 5 -8 11 -6 6 1 13 -3 16 -9 2 -7 -4 -11 -14
-10 -14 1 -18 -6 -16 -26 1 -19 -3 -28 -14 -28 -16 0 -15 -10 3 -82 4 -18 2
-28 -5 -28 -6 0 -11 8 -11 17 0 12 -3 14 -11 6 -15 -15 -7 -56 11 -60 13 -4
13 -3 0 6 -9 7 -10 11 -3 11 6 0 15 -5 18 -11 12 -18 45 22 45 53 0 28 25 135
40 173 12 28 20 70 29 140 4 33 13 73 20 89 14 34 51 76 68 76 17 0 25 16 30
68 3 26 9 55 15 66 16 30 82 85 137 112 19 10 32 -16 25 -51 l-6 -30 25 24
c16 14 30 20 39 15 10 -6 11 -5 1 8 -7 8 -10 18 -6 22 4 4 6 23 4 42 -1 19 2
34 8 34 6 0 11 4 11 10 0 5 -6 7 -14 4 -27 -10 -27 16 0 38 15 13 36 31 46 41
25 24 27 22 21 -21 -4 -28 -1 -42 12 -52 15 -13 20 -11 39 13 17 20 31 27 58
27 40 0 51 9 42 34 -8 20 -24 21 -24 2 0 -8 -7 -16 -15 -20 -26 -10 -17 30 10
48 19 12 24 23 20 37 -5 16 -2 19 20 19 21 0 26 4 21 16 -8 22 4 40 16 23 7
-11 11 -11 21 4 35 53 33 52 61 38 17 -10 26 -23 26 -39 0 -14 3 -23 6 -20 9
10 12 58 3 58 -5 0 -9 4 -9 9 0 10 56 -15 65 -29 3 -5 0 -12 -6 -15 -7 -5 -3
-15 12 -31 24 -26 39 -31 39 -13 0 6 11 25 25 44 14 18 24 37 23 43 -4 15 42
73 53 67 5 -4 9 5 9 19 0 30 5 32 26 12z m367 -6 c20 -1 20 -2 4 -11 -9 -5
-21 -7 -26 -4 -6 3 -14 -3 -20 -12 -9 -17 -11 -17 -28 0 -16 16 -16 17 0 17 9
0 17 5 17 11 0 6 7 8 16 5 9 -3 25 -6 37 -6z m-3653 -10 c0 -5 -5 -10 -11 -10
-5 0 -7 5 -4 10 3 6 8 10 11 10 2 0 4 -4 4 -10z m3210 -7 c0 -13 -17 -35 -26
-35 -5 0 -18 -6 -28 -14 -18 -12 -18 -14 -3 -20 21 -8 12 -24 -14 -24 -47 0 6
99 54 100 9 0 17 -3 17 -7z m567 -57 c-11 -28 -25 -17 -22 17 4 44 5 45 17 20
6 -12 8 -29 5 -37z m-177 15 c0 -12 -20 -25 -27 -18 -7 7 6 27 18 27 5 0 9 -4
9 -9z m420 -121 c0 -5 -4 -10 -10 -10 -5 0 -10 5 -10 10 0 6 5 10 10 10 6 0
10 -4 10 -10z m-26 -55 c3 -9 0 -15 -9 -15 -8 0 -15 7 -15 15 0 8 4 15 9 15 5
0 11 -7 15 -15z m63 -21 c-3 -3 -12 -4 -19 -1 -8 3 -5 6 6 6 11 1 17 -2 13 -5z
m-1879 -82 c2 -8 -2 -10 -13 -5 -14 5 -16 2 -10 -15 8 -29 -3 -62 -21 -62 -8
0 -14 -4 -14 -10 0 -5 7 -10 15 -10 10 0 8 -6 -8 -23 -13 -14 -27 -20 -33 -15
-17 12 -25 -3 -18 -36 4 -26 0 -36 -25 -60 -17 -17 -31 -26 -31 -21 0 20 34
131 44 144 6 8 9 24 8 36 -2 13 2 26 7 30 6 3 11 14 11 24 0 9 6 23 12 29 16
16 70 12 76 -6z m-3117 -109 c-12 -20 -14 -14 -5 12 4 9 9 14 11 11 3 -2 0
-13 -6 -23z m5149 3 c0 -3 -4 -8 -10 -11 -5 -3 -10 -1 -10 4 0 6 5 11 10 11 6
0 10 -2 10 -4z m-4280 -60 c0 -5 -7 -3 -15 4 -8 7 -12 17 -9 22 7 10 24 -9 24
-26z m4397 16 c-10 -10 -17 -24 -17 -30 0 -13 -13 -16 -23 -6 -7 7 33 54 46
54 6 0 3 -8 -6 -18z m-2184 -22 c-4 -14 -14 -20 -32 -20 l-26 1 24 19 c30 25
41 25 34 0z m-2182 -53 c-10 -9 -11 -8 -5 6 3 10 9 15 12 12 3 -3 0 -11 -7
-18z m4331 -3 c-7 -12 -11 -13 -17 -4 -4 7 -2 16 6 21 18 11 23 4 11 -17z
m-2174 -2 c2 -7 -3 -12 -12 -12 -9 0 -16 7 -16 16 0 17 22 14 28 -4z m2225
-20 c-2 -10 -15 -31 -27 -47 -20 -24 -24 -26 -29 -11 -4 9 -3 15 2 12 8 -5 23
19 35 57 8 23 26 13 19 -11z m-93 4 c0 -3 -4 -8 -10 -11 -5 -3 -10 -1 -10 4 0
6 5 11 10 11 6 0 10 -2 10 -4z m-2180 -34 c0 -10 -9 -25 -19 -34 -13 -11 -18
-24 -14 -37 4 -17 1 -21 -17 -21 -19 0 -21 4 -15 33 7 31 40 77 57 77 4 0 8
-8 8 -18z m2322 -29 c-45 -15 -55 -8 -23 17 19 14 29 15 42 7 16 -10 13 -13
-19 -24z m-5555 -155 c-3 -8 -6 -5 -6 6 -1 11 2 17 5 13 3 -3 4 -12 1 -19z
m-1043 -33 c-4 -8 -15 -15 -25 -15 -27 0 -24 18 4 23 12 2 23 5 24 6 1 0 0 -6
-3 -14z m7517 -68 c-10 -9 -11 -8 -5 6 3 10 9 15 12 12 3 -3 0 -11 -7 -18z m1
-39 c-6 -6 -15 -8 -19 -4 -4 4 -1 11 7 16 19 12 27 3 12 -12z m-5299 -3 c-3
-9 -8 -14 -10 -11 -3 3 -2 9 2 15 9 16 15 13 8 -4z m-953 -161 c0 -8 -5 -12
-10 -9 -6 4 -8 11 -5 16 9 14 15 11 15 -7z m6490 -138 c0 -11 -19 -15 -25 -6
-3 5 1 10 9 10 9 0 16 -2 16 -4z m115 -86 c3 -5 1 -10 -4 -10 -6 0 -11 5 -11
10 0 6 2 10 4 10 3 0 8 -4 11 -10z m-4785 -50 c0 -5 -2 -10 -4 -10 -3 0 -8 5
-11 10 -3 6 -1 10 4 10 6 0 11 -4 11 -10z m7448 -875 c-3 -3 -9 2 -12 12 -6
14 -5 15 5 6 7 -7 10 -15 7 -18z m-18 -44 c0 -16 -6 -31 -14 -34 -16 -6 -29
-55 -31 -114 0 -23 -4 -45 -7 -48 -10 -10 -48 14 -48 30 0 21 -19 18 -38 -5
-17 -20 -17 -20 -19 20 0 23 1 39 4 36 3 -3 18 1 34 10 26 13 28 13 22 -3 -6
-16 -5 -16 10 -4 20 16 23 47 5 53 -8 3 -4 12 10 26 12 12 22 28 22 36 0 8 6
17 13 19 28 12 37 6 37 -22z m-171 -136 c0 -5 -4 -3 -9 5 -5 8 -9 22 -9 30 0
16 17 -16 18 -35z m-219 -15 c0 -13 -38 -32 -50 -25 -6 3 -10 11 -10 16 0 6 4
8 8 5 4 -2 14 -1 22 5 19 11 30 11 30 -1z m181 -27 c1 -10 3 -33 5 -50 2 -18
0 -33 -5 -33 -6 0 -9 8 -9 18 0 9 -2 32 -6 50 -4 19 -2 32 4 32 5 0 11 -8 11
-17z m-51 -28 c0 -22 -22 -65 -31 -60 -9 6 11 75 23 75 4 0 8 -7 8 -15z m-180
-43 c0 -13 -4 -20 -10 -17 -5 3 -10 21 -10 38 0 24 3 28 10 17 5 -8 10 -25 10
-38z m320 -7 c0 -8 -4 -15 -10 -15 -5 0 -10 7 -10 15 0 8 5 15 10 15 6 0 10
-7 10 -15z m-126 -13 c2 -4 -2 -16 -10 -27 -13 -18 -14 -18 -14 8 0 25 13 36
24 19z m119 -42 c5 -21 -16 -45 -33 -35 -5 3 -10 0 -10 -8 0 -8 -7 -18 -16
-21 -8 -3 -13 -10 -10 -15 3 -5 -2 -7 -13 -4 -10 3 -22 0 -25 -6 -4 -6 -14
-11 -22 -11 -14 0 -14 2 0 15 8 8 19 15 25 15 6 0 11 5 11 10 0 6 -4 10 -9 10
-5 0 -7 9 -4 20 4 15 12 19 34 16 16 -2 29 1 29 6 0 5 5 6 10 3 6 -3 10 1 10
9 0 23 17 20 23 -4z m-360 -38 c-12 -8 -7 -52 6 -52 4 0 7 -9 8 -21 3 -30 -41
-22 -45 9 -2 12 1 22 6 22 5 0 7 11 4 25 -3 19 0 25 14 25 13 0 15 -3 7 -8z
m48 -15 c-13 -13 -26 -3 -16 12 3 6 11 8 17 5 6 -4 6 -10 -1 -17z m77 5 c2 -7
-3 -12 -12 -12 -9 0 -16 7 -16 16 0 17 22 14 28 -4z m88 -6 c0 -14 -5 -21 -9
-17 -4 4 -5 15 -1 24 9 24 12 21 10 -7z m-28 -33 c-2 -9 -8 -18 -15 -20 -7 -3
-9 3 -6 16 6 25 26 28 21 4z m-108 -13 c0 -5 -4 -10 -10 -10 -5 0 -10 5 -10
10 0 6 5 10 10 10 6 0 10 -4 10 -10z m190 -21 c-12 -9 -11 -10 8 -6 12 3 20 1
16 -4 -3 -5 4 -9 15 -9 29 0 63 -39 55 -64 -9 -27 -37 -49 -43 -34 -2 6 4 17
14 24 42 31 -36 69 -81 40 -12 -8 -33 -13 -47 -11 -21 4 -24 2 -20 -18 3 -13
-4 -32 -16 -46 -11 -13 -18 -27 -15 -32 7 -12 -15 -50 -29 -48 -36 4 -48 -1
-42 -21 4 -14 1 -22 -10 -26 -9 -4 -18 -4 -21 -2 -8 8 37 99 46 93 5 -3 14 4
20 16 10 17 9 20 -2 13 -9 -6 -9 -3 2 11 11 13 12 19 3 22 -18 6 -3 33 18 33
22 0 24 -10 7 -30 -11 -12 -10 -12 5 -1 9 7 17 19 17 26 0 22 51 56 73 49 15
-5 19 -3 14 9 -6 17 0 27 17 27 6 0 4 -5 -4 -11z m105 -9 c3 -5 1 -10 -4 -10
-6 0 -11 5 -11 10 0 6 2 10 4 10 3 0 8 -4 11 -10z m-415 -36 c0 -8 -4 -12 -10
-9 -5 3 -10 10 -10 16 0 5 5 9 10 9 6 0 10 -7 10 -16z m57 -6 c-3 -8 -6 -5 -6
6 -1 11 2 17 5 13 3 -3 4 -12 1 -19z m43 7 c-7 -8 -16 -15 -21 -15 -5 0 -9 7
-9 15 0 9 9 15 21 15 18 0 19 -2 9 -15z m70 11 c0 -3 -4 -8 -10 -11 -5 -3 -10
-1 -10 4 0 6 5 11 10 11 6 0 10 -2 10 -4z m170 -57 c0 -5 -4 -9 -10 -9 -5 0
-10 -5 -10 -10 0 -14 -59 -74 -66 -67 -9 9 16 48 27 42 5 -4 9 -1 9 4 0 6 -5
11 -12 11 -6 0 -1 11 11 24 21 23 51 26 51 5z m-320 -14 c-7 -9 -15 -13 -17
-11 -7 7 7 26 19 26 6 0 6 -6 -2 -15z m120 -21 c0 -8 -4 -14 -10 -14 -5 0 -10
9 -10 21 0 11 5 17 10 14 6 -3 10 -13 10 -21z m-120 -14 c0 -5 -5 -10 -11 -10
-5 0 -7 5 -4 10 3 6 8 10 11 10 2 0 4 -4 4 -10z m400 -8 c0 -13 -12 -22 -22
-16 -10 6 -1 24 13 24 5 0 9 -4 9 -8z m-540 -6 c0 -3 -4 -8 -10 -11 -5 -3 -10
-1 -10 4 0 6 5 11 10 11 6 0 10 -2 10 -4z m110 0 c0 -3 -4 -8 -10 -11 -5 -3
-10 -1 -10 4 0 6 5 11 10 11 6 0 10 -2 10 -4z m370 0 c0 -3 -4 -8 -10 -11 -5
-3 -10 -1 -10 4 0 6 5 11 10 11 6 0 10 -2 10 -4z m-270 -31 c0 -8 -7 -15 -16
-15 -9 0 -18 -9 -21 -20 -6 -21 -23 -28 -23 -10 0 11 45 60 55 60 3 0 5 -7 5
-15z m204 -37 c-10 -16 -22 -7 -17 13 4 15 8 17 14 8 4 -7 5 -17 3 -21z m-74
0 c0 -7 -4 -19 -9 -26 -6 -10 -11 -10 -21 3 -12 14 -11 18 1 26 20 12 29 11
29 -3z m58 -65 c-2 -9 -8 -18 -15 -20 -7 -3 -9 3 -6 16 6 25 26 28 21 4z
m-320 -71 c-9 -10 -13 -11 -19 0 -5 7 -9 19 -9 26 0 10 4 10 19 0 15 -9 17
-15 9 -26z m70 11 c2 -8 -6 -13 -22 -13 -19 0 -24 4 -19 15 6 18 34 16 41 -2z
m387 -12 c-3 -6 -11 -11 -17 -11 -6 0 -6 6 2 15 14 17 26 13 15 -4z m-112 -11
c-3 -12 -8 -19 -11 -16 -5 6 5 36 12 36 2 0 2 -9 -1 -20z m-373 -45 c0 -8 -7
-15 -15 -15 -16 0 -20 12 -8 23 11 12 23 8 23 -8z m80 5 c0 -5 -4 -10 -10 -10
-5 0 -10 5 -10 10 0 6 5 10 10 10 6 0 10 -4 10 -10z m360 -10 c0 -5 -5 -10
-11 -10 -5 0 -7 5 -4 10 3 6 8 10 11 10 2 0 4 -4 4 -10z m-136 -36 c20 -8 21
-24 1 -24 -9 0 -12 -6 -9 -15 4 -8 1 -15 -5 -15 -6 0 -11 3 -11 8 0 4 -3 17
-6 30 -6 23 2 27 30 16z m89 -51 c-3 -7 -9 -13 -13 -13 -17 0 -21 20 -9 42 12
22 12 22 19 3 4 -11 5 -26 3 -32z m52 37 c3 -5 1 -10 -4 -10 -6 0 -11 5 -11
10 0 6 2 10 4 10 3 0 8 -4 11 -10z m-120 -70 c-3 -5 -11 -10 -16 -10 -6 0 -7
5 -4 10 3 6 11 10 16 10 6 0 7 -4 4 -10z m-20 -57 c-8 -8 -15 -19 -15 -24 0
-5 -4 -9 -9 -9 -6 0 -6 11 0 29 7 19 16 28 25 24 11 -4 11 -7 -1 -20z m92 -3
c-1 -23 -17 -28 -17 -6 0 8 -8 17 -17 19 -12 3 -8 5 9 6 21 1 26 -3 25 -19z
m-395 -65 c-11 -21 -25 -4 -16 20 4 10 10 13 16 7 7 -7 7 -16 0 -27z m361 5
c3 -12 0 -20 -8 -20 -16 0 -37 25 -28 33 13 13 31 7 36 -13z m-35 -53 c6 3 12
-2 12 -10 0 -19 -53 -27 -68 -11 -8 9 -7 14 4 18 9 3 12 11 8 18 -4 7 1 6 12
-3 10 -9 25 -14 32 -12z m-6494 -839 c-4 -6 -10 -5 -15 3 -14 22 -10 33 6 19
8 -7 12 -17 9 -22z m6246 -368 c0 -5 -4 -10 -10 -10 -5 0 -10 5 -10 10 0 6 5
10 10 10 6 0 10 -4 10 -10z m-5435 -195 c14 -5 16 -9 6 -12 -7 -3 -25 7 -40
23 -14 15 -17 21 -6 13 11 -9 29 -19 40 -24z m10160 -4084 c3 -5 0 -13 -6 -16
-6 -4 -19 -21 -30 -39 -17 -27 -19 -28 -19 -9 0 52 36 94 55 64z m61 -106 c-1
-5 -13 -12 -26 -13 -20 -3 -22 -1 -12 10 6 8 9 25 6 39 l-6 24 21 -25 c11 -14
19 -29 17 -35z m-1791 -18 c27 -3 58 -1 67 4 10 6 19 5 23 -1 3 -5 19 -7 35
-3 16 3 37 2 47 -1 27 -11 -4 -26 -38 -19 -15 3 -37 -1 -50 -8 -21 -11 -54
-18 -94 -20 -5 0 -32 4 -60 8 -42 7 -49 12 -47 28 2 11 11 28 20 38 15 17 17
17 32 -1 10 -13 32 -21 65 -25z m668 12 c116 1 153 -2 170 -14 20 -14 20 -15
-18 -31 -40 -16 -73 -9 -67 15 3 17 -28 13 -34 -4 -7 -18 -35 -20 -51 -4 -12
12 -93 14 -293 7 -69 -2 -136 -2 -150 2 -24 6 -24 6 9 19 27 12 34 12 41 1 5
-8 13 -9 21 -4 17 10 175 23 204 16 10 -3 86 -4 168 -3z m1057 -4 c11 -14 7
-19 -12 -16 -5 0 -8 -8 -8 -19 0 -16 -7 -20 -35 -20 -19 0 -35 5 -35 10 0 6
-7 10 -15 10 -8 0 -15 4 -15 9 0 5 19 7 41 4 39 -6 41 -5 34 16 -5 16 -2 21
13 21 11 0 25 -7 32 -15z m-630 -16 c0 -5 -12 -9 -27 -9 -27 1 -27 1 -9 15 19
14 36 12 36 -6z m-175 2 c7 -12 -31 -25 -45 -16 -5 3 -10 10 -10 16 0 12 47
12 55 0z m83 -3 c-7 -19 -38 -22 -38 -4 0 10 9 16 21 16 12 0 19 -5 17 -12z
m157 2 c8 -13 -23 -20 -34 -6 -7 8 -5 12 9 13 11 1 22 -2 25 -7z m105 0 c0 -5
-4 -10 -10 -10 -5 0 -10 5 -10 10 0 6 5 10 10 10 6 0 10 -4 10 -10z m200 1 c0
-6 -5 -13 -10 -16 -15 -9 -43 3 -35 15 8 13 45 13 45 1z m-110 -16 c-13 -16
-40 -20 -40 -7 0 14 12 22 33 22 16 0 17 -3 7 -15z m190 -4 c0 -13 -28 -22
-35 -11 -3 5 -12 7 -20 3 -8 -3 -15 0 -15 6 0 6 16 11 35 11 19 0 35 -4 35 -9z
m-1827 -133 c33 -32 39 -53 18 -72 -25 -23 -62 -28 -80 -12 -10 9 -34 13 -66
11 -27 -2 -57 -4 -65 -4 -9 -1 -24 -14 -33 -31 -10 -16 -26 -30 -35 -30 -16
-1 -16 -1 0 -11 15 -8 17 -19 12 -67 -6 -55 -5 -59 26 -90 17 -18 40 -32 51
-32 10 0 19 -6 19 -14 0 -30 -99 1 -107 34 -3 11 -13 22 -23 25 -14 4 -19 22
-24 85 -9 96 1 115 90 176 52 36 81 45 176 53 9 0 28 -9 41 -21z m341 -67 c-9
-10 -26 18 -18 30 5 9 9 8 14 -7 4 -10 6 -21 4 -23z m86 -8 c0 -7 -8 -13 -18
-13 -11 0 -23 -13 -31 -35 -7 -19 -17 -35 -22 -35 -5 0 -9 -8 -9 -17 0 -12 -3
-14 -11 -6 -12 12 -20 76 -10 89 21 29 101 42 101 17z m75 -3 c-3 -5 -14 -10
-23 -10 -15 0 -15 2 -2 10 20 13 33 13 25 0z m1585 -10 c0 -5 -7 -10 -16 -10
-8 0 -12 5 -9 10 3 6 10 10 16 10 5 0 9 -4 9 -10z m-1560 -10 c0 -5 -4 -10
-10 -10 -5 0 -10 5 -10 10 0 6 5 10 10 10 6 0 10 -4 10 -10z m47 -2 c-5 -16
10 -48 24 -48 6 0 8 9 4 20 -3 11 -4 20 -1 20 18 0 39 -16 47 -36 4 -13 15
-24 23 -24 16 0 31 -34 21 -49 -3 -5 -1 -12 5 -16 16 -10 12 -25 -5 -19 -19 8
-19 0 1 -21 13 -12 14 -19 4 -30 -21 -25 -48 -18 -53 13 -10 56 -7 82 8 82 8
0 15 7 15 15 0 15 -36 29 -62 23 -18 -4 -81 49 -68 57 5 3 10 0 10 -7 0 -10 3
-9 9 2 6 8 7 18 5 22 -3 4 0 8 6 8 7 0 10 -6 7 -12z m1099 -32 c27 7 61 -10
68 -34 4 -10 22 -26 42 -36 28 -13 35 -21 31 -37 -3 -12 0 -22 9 -26 8 -3 13
-12 10 -20 -3 -8 -1 -24 5 -35 8 -14 8 -23 0 -31 -6 -6 -11 -17 -11 -24 0 -19
-38 -58 -47 -49 -4 4 0 20 9 36 9 16 13 32 8 35 -11 7 -1 37 14 47 7 5 4 8 -6
8 -13 0 -18 8 -18 29 0 36 -35 77 -73 86 -15 4 -30 11 -33 16 -8 13 -92 11
-139 -3 -22 -6 -43 -12 -47 -12 -8 -1 -23 -16 -23 -24 0 -4 -11 -31 -25 -59
-22 -50 -40 -68 -40 -41 0 9 -3 9 -11 1 -8 -8 -7 -17 3 -32 11 -18 11 -23 -2
-31 -8 -5 -18 -6 -24 -3 -5 3 -6 1 -2 -6 4 -6 11 -9 16 -6 16 10 30 -80 17
-103 -5 -7 -3 -12 5 -12 21 0 41 -17 34 -28 -10 -17 -68 7 -64 27 2 8 -5 24
-15 34 -11 11 -17 27 -14 38 3 11 1 36 -5 56 -8 30 -7 38 6 45 9 5 16 21 16
36 1 34 43 88 61 77 9 -6 11 -3 6 10 -9 21 9 37 78 69 72 34 77 34 110 15 16
-11 39 -16 51 -13z m-505 -3 c16 -3 29 -12 29 -19 0 -15 -4 -16 -68 -19 -24
-1 -47 -6 -50 -12 -4 -6 -21 -14 -38 -17 -28 -6 -32 -12 -37 -49 -6 -42 -27
-97 -37 -97 -3 0 -5 -27 -3 -60 1 -36 -2 -60 -8 -60 -6 0 -7 -5 -4 -10 4 -6
10 -8 14 -5 5 2 17 -2 27 -10 16 -12 17 -16 4 -24 -11 -8 -9 -12 15 -22 37
-15 163 -18 173 -4 11 17 60 45 77 45 8 0 15 -7 15 -15 0 -8 -6 -15 -14 -15
-8 0 -21 -7 -30 -15 -27 -27 -107 -55 -157 -55 -69 0 -128 45 -152 116 -10 29
-15 59 -11 68 3 9 1 29 -4 45 -8 22 -7 34 3 48 8 10 11 28 9 39 -8 33 71 125
127 146 24 10 55 15 68 12 13 -3 36 -8 52 -11z m-807 -99 c4 -9 2 -22 -4 -29
-7 -9 -8 -15 -1 -19 6 -4 8 -13 4 -21 -3 -8 0 -15 6 -15 6 0 11 -16 11 -35 0
-29 -4 -35 -21 -35 -17 0 -19 3 -10 14 9 11 9 16 0 21 -8 6 -8 9 1 15 9 6 8
14 -3 36 -15 29 -13 84 3 84 4 0 11 -7 14 -16z m2096 6 c0 -5 7 -10 15 -10 8
0 15 -7 15 -15 0 -21 -12 -19 -33 5 -20 23 -21 30 -7 30 6 0 10 -4 10 -10z
m-375 -27 c-24 -17 -45 -17 -45 1 0 8 10 16 23 18 32 6 43 -3 22 -19z m480 13
c46 -16 51 -26 33 -66 -14 -33 -33 -41 -25 -11 7 29 -11 51 -43 51 -23 0 -28
4 -27 20 2 24 9 24 62 6z m-139 -33 c-11 -11 -17 4 -9 23 7 18 8 18 11 1 2
-10 1 -21 -2 -24z m-133 -63 c-3 -11 -9 -23 -14 -26 -10 -6 -12 29 -2 39 13
13 21 7 16 -13z m-1609 -31 c-8 -13 -54 -11 -54 2 0 7 8 18 18 25 14 11 19 11
29 -3 7 -9 10 -20 7 -24z m-739 21 c3 -5 14 -10 25 -10 10 0 21 -8 26 -17 12
-28 14 -63 3 -63 -5 0 -9 6 -9 14 0 8 -7 17 -16 20 -10 4 -14 12 -10 22 4 12
1 14 -14 9 -11 -4 -20 -2 -20 4 0 5 -12 9 -26 8 -15 -1 -29 4 -31 11 -6 15 63
17 72 2z m2668 -14 c7 -18 -18 -30 -65 -31 -44 0 -45 18 -2 23 16 2 33 8 39
13 13 13 22 11 28 -5z m-339 -31 c-6 -16 -24 -21 -24 -7 0 11 11 22 21 22 5 0
6 -7 3 -15z m-1629 -40 c-39 -31 -57 -32 -46 -2 5 13 19 24 37 28 41 8 43 2 9
-26z m-275 5 c0 -11 -4 -20 -9 -20 -13 0 -32 26 -24 33 13 14 33 6 33 -13z
m1930 -9 c0 -20 -13 -41 -25 -41 -21 0 -28 19 -15 35 14 17 40 20 40 6z m190
-7 c0 -10 -27 -33 -33 -28 -9 10 4 34 19 34 8 0 14 -3 14 -6z m58 -6 c-6 -18
-28 -21 -28 -4 0 9 7 16 16 16 9 0 14 -5 12 -12z m-2530 -10 c16 -16 15 -28
-3 -28 -17 0 -19 -12 -5 -26 16 -16 -9 -57 -51 -87 -25 -18 -58 -30 -101 -36
-65 -9 -83 -7 -73 10 4 5 1 9 -4 9 -6 0 -11 -4 -11 -10 0 -17 -41 -11 -76 11
-69 42 -23 78 76 58 86 -16 124 -11 165 21 21 17 42 30 47 30 5 0 8 8 7 18 -4
43 6 53 29 30z m372 -13 c0 -8 -9 -19 -19 -24 -15 -8 -20 -7 -25 5 -10 25 -7
32 12 37 22 5 32 -1 32 -18z m1740 6 c0 -14 -12 -20 -26 -14 -22 8 -17 32 6
26 11 -3 20 -9 20 -12z m-1537 -3 c15 -7 27 -16 27 -19 0 -13 -34 -19 -41 -8
-4 6 -11 9 -17 5 -13 -8 -26 10 -17 24 8 13 15 13 48 -2z m1225 1 c-2 -6 -7
-10 -11 -10 -4 1 -16 1 -28 1 -11 0 -17 5 -14 10 8 14 58 13 53 -1z m-13 -51
c-9 -31 -33 -68 -44 -68 -5 0 -19 -16 -32 -36 l-24 -35 -85 3 c-48 2 -85 7
-85 13 0 6 11 12 25 13 14 2 31 9 38 14 9 8 12 6 12 -6 0 -22 17 -20 29 3 6
10 27 27 47 38 21 10 38 27 40 37 4 29 25 46 56 46 26 0 29 -3 23 -22z m-1256
-20 c12 -3 12 -6 -2 -11 -9 -3 -17 -2 -17 3 0 20 -19 9 -22 -12 -4 -25 -28
-37 -28 -14 0 9 -7 16 -16 16 -11 0 -4 9 17 24 26 18 36 20 44 11 6 -6 17 -14
24 -17z m1591 21 c0 -5 -4 -7 -10 -4 -5 3 -10 1 -10 -6 0 -7 -3 -10 -6 -6 -8
7 4 27 17 27 5 0 9 -5 9 -11z m-1770 -23 c-6 -8 -6 -16 1 -23 5 -5 12 -28 14
-51 3 -32 -1 -46 -20 -66 -13 -14 -26 -26 -29 -26 -9 0 7 65 17 72 7 4 6 12
-2 22 -11 13 -11 19 0 32 11 14 10 18 -6 30 -16 12 -17 16 -6 23 20 13 44 2
31 -13z m1969 11 c6 -8 8 -17 4 -20 -3 -4 -6 -20 -5 -37 0 -16 -3 -30 -7 -30
-14 0 -38 34 -45 62 -6 26 -2 30 35 37 4 0 12 -5 18 -12z m-2185 -13 c15 -15
16 -33 2 -65 -8 -18 -55 -14 -68 5 -10 14 -10 60 -1 69 12 12 51 7 67 -9z
m1359 -14 c14 -11 30 -20 36 -20 6 0 11 -5 11 -10 0 -7 -6 -7 -17 -2 -10 5
-24 7 -31 4 -19 -6 -62 18 -62 35 0 19 34 16 63 -7z m602 0 c-3 -5 0 -19 8
-30 8 -11 12 -30 10 -43 -3 -17 -11 -22 -34 -21 -42 2 -42 2 -25 25 8 12 12
28 9 37 -4 8 2 21 12 28 22 17 28 18 20 4z m284 -27 c-3 -34 1 -43 19 -43 9 0
34 -5 55 -11 27 -7 37 -15 37 -30 0 -16 -6 -20 -27 -17 -18 2 -27 8 -25 17 3
12 0 12 -12 2 -11 -9 -20 -10 -36 -1 -12 6 -24 9 -27 6 -10 -10 -33 15 -33 36
0 10 7 21 15 24 8 4 15 11 15 16 0 6 -7 8 -15 4 -8 -3 -15 -1 -15 4 0 6 12 10
26 10 18 0 25 -5 23 -17z m232 -42 c-30 -30 -46 -17 -24 20 15 25 19 27 31 15
12 -12 11 -17 -7 -35z m-51 -20 c0 -14 -6 -17 -25 -13 -36 6 -31 32 7 32 11 0
18 -7 18 -19z m-2190 -71 c0 -11 -42 -31 -49 -24 -2 2 2 10 9 19 14 17 40 20
40 5z m-10 -47 c-1 -14 -25 -39 -37 -38 -23 0 -28 17 -9 31 21 15 46 19 46 7z
m-19 -96 c-7 -7 -7 -15 1 -25 10 -11 8 -17 -7 -28 -28 -21 -39 -12 -41 32 -1
44 11 57 39 42 14 -7 16 -13 8 -21z m-5 -92 c8 -16 6 -22 -10 -32 -18 -11 -19
-12 -3 -13 9 0 17 -4 17 -10 0 -10 -32 -30 -49 -30 -11 0 -15 68 -5 93 7 21
37 16 50 -8z m-21 -115 c3 -5 8 -32 9 -59 3 -37 0 -51 -11 -55 -18 -7 -35 2
-27 15 3 5 1 15 -4 22 -7 8 -7 24 1 50 12 38 21 45 32 27z"/>
<path d="M9500 15200 c0 -5 12 -10 28 -9 24 0 25 1 7 9 -27 12 -35 12 -35 0z"/>
<path d="M9575 15190 c3 -5 11 -10 16 -10 6 0 7 5 4 10 -3 6 -11 10 -16 10 -6
0 -7 -4 -4 -10z"/>
<path d="M7270 15034 c0 -8 5 -12 10 -9 6 3 10 10 10 16 0 5 -4 9 -10 9 -5 0
-10 -7 -10 -16z"/>
<path d="M10830 14500 c0 -5 5 -10 10 -10 6 0 10 5 10 10 0 6 -4 10 -10 10 -5
0 -10 -4 -10 -10z"/>
<path d="M10825 14259 c-11 -17 1 -21 15 -4 8 9 8 15 2 15 -6 0 -14 -5 -17
-11z"/>
<path d="M9320 14249 c0 -5 5 -7 10 -4 6 3 10 8 10 11 0 2 -4 4 -10 4 -5 0
-10 -5 -10 -11z"/>
<path d="M9250 14229 c0 -5 5 -7 10 -4 6 3 10 8 10 11 0 2 -4 4 -10 4 -5 0
-10 -5 -10 -11z"/>
<path d="M7066 14211 c-4 -7 -5 -15 -2 -18 9 -9 19 4 14 18 -4 11 -6 11 -12 0z"/>
<path d="M9460 14195 c0 -8 2 -15 4 -15 2 0 6 7 10 15 3 8 1 15 -4 15 -6 0
-10 -7 -10 -15z"/>
<path d="M10580 14195 c-14 -8 -35 -19 -47 -24 -27 -13 -39 -31 -19 -31 9 0
16 5 16 11 0 5 4 8 9 5 5 -3 14 1 21 10 7 8 18 13 25 10 6 -2 17 5 23 15 14
23 6 24 -28 4z"/>
<path d="M10655 14200 c3 -5 8 -10 11 -10 2 0 4 5 4 10 0 6 -5 10 -11 10 -5 0
-7 -4 -4 -10z"/>
<path d="M10090 14070 c-9 -6 -10 -10 -3 -10 6 0 15 5 18 10 8 12 4 12 -15 0z"/>
<path d="M9262 14026 c-21 -22 -28 -35 -20 -38 16 -6 46 24 40 40 -2 7 2 11 8
10 7 -2 15 3 17 10 8 22 -11 13 -45 -22z"/>
<path d="M7015 14021 c-6 -11 9 -23 19 -14 9 9 7 23 -3 23 -6 0 -12 -4 -16 -9z"/>
<path d="M9348 14018 c-16 -5 -28 -15 -28 -23 0 -10 8 -9 35 3 19 9 35 20 35
24 0 10 -7 9 -42 -4z"/>
<path d="M9119 13954 c-10 -13 -10 -17 1 -24 20 -12 29 -4 23 20 -6 24 -7 24
-24 4z"/>
<path d="M9220 13945 c12 -15 30 -12 30 6 0 5 -10 9 -21 9 -18 0 -19 -2 -9
-15z"/>
<path d="M9065 13930 c-3 -5 -2 -10 4 -10 5 0 13 5 16 10 3 6 2 10 -4 10 -5 0
-13 -4 -16 -10z"/>
<path d="M9065 13900 c-3 -5 -1 -10 4 -10 6 0 11 5 11 10 0 6 -2 10 -4 10 -3
0 -8 -4 -11 -10z"/>
<path d="M5111 13878 c-4 -13 -11 -40 -14 -61 -5 -32 -4 -37 7 -27 8 6 16 25
18 43 3 18 8 40 13 50 4 10 3 17 -4 17 -6 0 -15 -10 -20 -22z"/>
<path d="M8990 13880 c-6 -11 -7 -20 -2 -20 10 0 32 21 32 32 0 16 -19 8 -30
-12z"/>
<path d="M8850 13839 c0 -8 5 -10 30 -13 6 -1 10 4 10 9 0 6 -9 11 -20 11 -11
1 -20 -3 -20 -7z"/>
<path d="M7007 13772 c-10 -10 -14 -22 -11 -25 4 -4 1 -14 -7 -24 -12 -15 -12
-16 4 -10 10 4 20 7 22 7 2 0 1 9 -2 20 -4 13 1 26 13 35 11 8 14 15 8 15 -6
0 -18 -8 -27 -18z"/>
<path d="M7008 13660 c-14 -34 -18 -70 -8 -70 15 0 22 23 18 57 -3 18 -6 23
-10 13z"/>
<path d="M11060 13619 c0 -5 5 -7 10 -4 6 3 10 8 10 11 0 2 -4 4 -10 4 -5 0
-10 -5 -10 -11z"/>
<path d="M4945 13540 c-22 -15 -40 -34 -41 -41 -2 -32 -4 -39 -12 -39 -4 0 -7
16 -7 35 1 19 -2 32 -7 29 -5 -3 -8 -22 -7 -42 3 -44 -17 -86 -36 -78 -14 5
-19 -7 -40 -96 -4 -14 -15 -28 -24 -31 -10 -2 -21 -17 -25 -33 -4 -16 -16 -39
-27 -50 l-20 -21 25 4 c15 3 26 12 26 20 0 9 6 13 14 10 12 -5 13 1 9 29 -3
20 -1 34 5 34 12 0 22 -24 22 -53 0 -20 1 -20 17 -4 13 13 15 20 5 29 -17 17
-15 49 6 64 14 10 15 16 5 32 -16 26 -1 46 27 37 20 -6 22 -5 16 18 -4 19 0
28 19 41 15 10 25 12 25 5 0 -6 6 -9 13 -6 6 2 11 14 9 25 -2 13 3 25 12 28
14 5 43 71 34 79 -1 2 -21 -9 -43 -25z"/>
<path d="M6972 13558 c-14 -14 -16 -38 -3 -38 10 0 26 39 19 46 -2 2 -10 -2
-16 -8z"/>
<path d="M11150 13521 c0 -11 -5 -23 -10 -26 -6 -4 -8 -11 -4 -16 10 -16 34
11 34 37 0 13 -4 24 -10 24 -5 0 -10 -9 -10 -19z"/>
<path d="M4806 13513 c-6 -14 -5 -15 5 -6 7 7 10 15 7 18 -3 3 -9 -2 -12 -12z"/>
<path d="M4819 13493 c-3 -28 -9 -45 -23 -59 -23 -22 -20 -41 3 -20 11 10 24
15 30 12 5 -4 12 -2 15 3 4 5 1 13 -5 16 -6 4 -8 18 -5 31 4 14 2 24 -4 24 -5
0 -10 -3 -11 -7z"/>
<path d="M6985 13480 c3 -5 8 -10 11 -10 2 0 4 5 4 10 0 6 -5 10 -11 10 -5 0
-7 -4 -4 -10z"/>
<path d="M4775 13460 c-3 -5 -1 -10 4 -10 6 0 11 5 11 10 0 6 -2 10 -4 10 -3
0 -8 -4 -11 -10z"/>
<path d="M6983 13377 c-7 -23 -9 -43 -5 -45 4 -1 6 -22 4 -47 -2 -25 -1 -53 2
-62 6 -14 9 -15 20 -2 17 18 31 73 16 64 -5 -3 -10 -1 -10 4 0 6 6 11 13 11
11 0 10 12 -5 58 -11 31 -21 58 -22 59 -1 1 -7 -17 -13 -40z"/>
<path d="M11060 13360 c-14 -11 -20 -20 -14 -20 7 0 22 9 35 20 31 25 12 26
-21 0z"/>
<path d="M4732 13319 c-17 -16 -32 -32 -32 -35 0 -4 9 1 20 11 11 10 20 13 20
7 0 -23 28 -11 32 13 7 36 -3 37 -40 4z"/>
<path d="M4691 13254 c0 -11 3 -14 6 -6 3 7 2 16 -1 19 -3 4 -6 -2 -5 -13z"/>
<path d="M6935 13240 c-3 -5 1 -10 10 -10 9 0 13 5 10 10 -3 6 -8 10 -10 10
-2 0 -7 -4 -10 -10z"/>
<path d="M7030 13197 c0 -11 -6 -17 -17 -15 -14 2 -18 -4 -20 -28 0 -18 -9
-44 -18 -58 -21 -32 -12 -45 17 -27 20 13 21 12 15 -32 -6 -41 -4 -45 16 -49
21 -4 22 0 23 53 1 36 -3 57 -9 56 -6 -1 -13 6 -15 16 -2 10 2 17 12 17 9 0
16 5 16 11 0 5 -4 8 -9 5 -17 -11 -18 19 -2 31 13 9 14 14 4 24 -11 11 -13 10
-13 -4z"/>
<path d="M4792 13168 c-5 -20 -6 -20 -12 -3 -5 15 -9 13 -22 -16 -20 -44 -33
-103 -17 -76 8 14 14 16 25 6 17 -14 19 2 2 20 -11 10 -8 17 13 34 28 24 45
57 28 57 -6 0 -13 -10 -17 -22z"/>
<path d="M11033 13143 c-28 -5 -31 -23 -4 -23 10 0 21 7 25 15 3 8 4 14 3 14
-1 -1 -12 -4 -24 -6z"/>
<path d="M4768 13034 c4 -22 6 -24 14 -10 9 16 3 36 -11 36 -5 0 -6 -12 -3
-26z"/>
<path d="M4736 12974 c-4 -9 -4 -19 -2 -21 8 -8 26 8 26 23 0 19 -16 18 -24
-2z"/>
<path d="M7050 12961 c0 -5 7 -14 15 -21 8 -7 16 -20 16 -29 1 -9 4 -2 8 14 7
30 -2 45 -26 45 -7 0 -13 -4 -13 -9z"/>
<path d="M6188 12943 c7 -3 16 -2 19 1 4 3 -2 6 -13 5 -11 0 -14 -3 -6 -6z"/>
<path d="M4780 12915 c-7 -9 -10 -18 -7 -21 10 -11 37 5 37 21 0 19 -14 19
-30 0z"/>
<path d="M4805 12870 c-3 -5 -1 -10 4 -10 6 0 11 5 11 10 0 6 -2 10 -4 10 -3
0 -8 -4 -11 -10z"/>
<path d="M7219 12868 c-1 -7 -1 -19 0 -26 1 -7 -12 -19 -30 -26 -39 -16 -22
-31 26 -22 36 7 53 31 28 40 -14 6 -14 9 2 26 18 19 17 20 -3 20 -12 0 -23 -6
-23 -12z"/>
<path d="M5590 12850 c0 -5 7 -10 15 -10 8 0 15 5 15 10 0 6 -7 10 -15 10 -8
0 -15 -4 -15 -10z"/>
<path d="M7407 12835 c-4 -24 -3 -25 14 -9 10 9 16 21 13 25 -10 16 -22 9 -27
-16z"/>
<path d="M7340 12832 c0 -9 -7 -11 -19 -7 -12 4 -21 0 -25 -11 -9 -24 -2 -27
33 -12 24 10 28 16 21 28 -7 11 -10 12 -10 2z"/>
<path d="M7450 12825 c0 -8 0 -18 0 -22 1 -5 12 -7 25 -5 17 2 25 -1 25 -12 0
-9 5 -16 11 -16 6 0 8 7 5 16 -3 9 -6 18 -6 20 0 2 -6 4 -14 4 -8 0 -16 7 -20
15 -3 8 -10 15 -16 15 -5 0 -10 -7 -10 -15z"/>
<path d="M5482 12816 c-48 -18 -63 -36 -21 -27 45 10 102 41 74 39 -11 0 -35
-6 -53 -12z"/>
<path d="M4797 12801 c-4 -17 -3 -21 5 -13 5 5 8 16 6 23 -3 8 -7 3 -11 -10z"/>
<path d="M7109 12811 c7 -5 10 -14 7 -20 -4 -6 -2 -11 3 -11 6 0 11 9 11 20 0
12 -7 20 -17 20 -14 0 -15 -2 -4 -9z"/>
<path d="M5388 12792 c-10 -2 -18 -8 -18 -13 0 -11 11 -11 30 1 18 11 11 18
-12 12z"/>
<path d="M6976 12738 c-7 -41 30 -131 44 -107 5 8 4 19 -3 27 -6 8 -13 33 -14
55 -4 54 -19 68 -27 25z"/>
<path d="M7435 12747 c-8 -11 -12 -23 -9 -26 3 -3 8 -1 12 5 4 5 18 14 32 20
24 11 24 11 2 16 -16 4 -27 0 -37 -15z"/>
<path d="M7390 12711 c0 -6 -6 -11 -12 -10 -39 5 -46 -1 -35 -25 6 -13 17 -22
23 -19 14 5 37 53 29 61 -3 3 -5 0 -5 -7z"/>
<path d="M7560 12710 c0 -5 7 -10 16 -10 8 0 12 5 9 10 -3 6 -10 10 -16 10 -5
0 -9 -4 -9 -10z"/>
<path d="M6700 12699 c0 -5 5 -7 10 -4 6 3 10 8 10 11 0 2 -4 4 -10 4 -5 0
-10 -5 -10 -11z"/>
<path d="M6910 12699 c0 -5 5 -7 10 -4 6 3 10 8 10 11 0 2 -4 4 -10 4 -5 0
-10 -5 -10 -11z"/>
<path d="M10770 12694 c0 -8 5 -12 10 -9 6 3 10 10 10 16 0 5 -4 9 -10 9 -5 0
-10 -7 -10 -16z"/>
<path d="M7077 12694 c-8 -8 1 -24 14 -24 5 0 9 7 9 15 0 15 -12 20 -23 9z"/>
<path d="M7545 12680 c3 -6 -1 -13 -9 -16 -22 -9 -20 -19 9 -34 20 -11 27 -11
40 0 19 16 20 31 1 24 -8 -3 -16 3 -19 15 -3 12 -10 21 -17 21 -6 0 -8 -5 -5
-10z"/>
<path d="M6396 12643 c-6 -14 -5 -15 5 -6 7 7 10 15 7 18 -3 3 -9 -2 -12 -12z"/>
<path d="M7040 12596 c0 -2 7 -7 16 -10 8 -3 12 -2 9 4 -6 10 -25 14 -25 6z"/>
<path d="M7080 12581 c0 -5 7 -12 16 -15 12 -5 14 -14 9 -37 -7 -32 -2 -33 32
-7 13 10 4 46 -12 48 -5 1 -18 6 -27 11 -11 6 -18 6 -18 0z"/>
<path d="M10635 12510 c-3 -5 1 -10 9 -10 9 0 16 5 16 10 0 6 -4 10 -9 10 -6
0 -13 -4 -16 -10z"/>
<path d="M5222 12470 c-7 -11 -10 -20 -6 -20 7 0 34 27 34 34 0 13 -16 5 -28
-14z"/>
<path d="M5065 12470 c-3 -5 -1 -10 4 -10 6 0 11 5 11 10 0 6 -2 10 -4 10 -3
0 -8 -4 -11 -10z"/>
<path d="M7736 12444 c-4 -10 -1 -14 6 -12 15 5 23 28 10 28 -5 0 -13 -7 -16
-16z"/>
<path d="M5229 12413 c-7 -11 -19 -19 -28 -18 -9 1 -10 0 -3 -2 15 -5 15 -9 0
-36 -7 -14 3 -9 28 15 28 28 35 41 27 49 -8 8 -15 6 -24 -8z"/>
<path d="M10587 12410 c-3 -11 -1 -20 4 -20 5 0 9 9 9 20 0 11 -2 20 -4 20 -2
0 -6 -9 -9 -20z"/>
<path d="M5118 12413 c7 -3 16 -2 19 1 4 3 -2 6 -13 5 -11 0 -14 -3 -6 -6z"/>
<path d="M7057 12322 c-20 -22 -21 -32 -6 -32 12 0 38 29 39 43 0 13 -17 7
-33 -11z"/>
<path d="M10480 12284 c0 -8 5 -12 10 -9 6 3 10 10 10 16 0 5 -4 9 -10 9 -5 0
-10 -7 -10 -16z"/>
<path d="M9370 12260 c0 -5 5 -10 10 -10 6 0 10 5 10 10 0 6 -4 10 -10 10 -5
0 -10 -4 -10 -10z"/>
<path d="M6740 11995 c-8 -9 -8 -15 -2 -15 12 0 26 19 19 26 -2 2 -10 -2 -17
-11z"/>
<path d="M7435 15180 c-3 -5 -1 -10 4 -10 6 0 11 5 11 10 0 6 -2 10 -4 10 -3
0 -8 -4 -11 -10z"/>
<path d="M8834 10611 c5 -7 10 -10 13 -7 3 2 16 1 29 -4 15 -6 24 -6 24 0 0 6
-6 10 -12 10 -7 0 -24 3 -37 7 -18 4 -22 3 -17 -6z"/>
<path d="M9125 10480 c-3 -5 1 -10 10 -10 9 0 13 5 10 10 -3 6 -8 10 -10 10
-2 0 -7 -4 -10 -10z"/>
<path d="M8345 10461 c-3 -5 -1 -12 5 -16 5 -3 10 1 10 9 0 18 -6 21 -15 7z"/>
<path d="M9000 10429 c0 -5 5 -7 10 -4 6 3 10 8 10 11 0 2 -4 4 -10 4 -5 0
-10 -5 -10 -11z"/>
<path d="M9438 10193 c7 -3 16 -2 19 1 4 3 -2 6 -13 5 -11 0 -14 -3 -6 -6z"/>
<path d="M7947 10183 c-10 -9 -8 -43 2 -43 5 0 14 6 20 14 8 10 8 16 -2 25 -8
6 -17 8 -20 4z"/>
<path d="M9330 10160 c0 -5 5 -10 10 -10 6 0 10 5 10 10 0 6 -4 10 -10 10 -5
0 -10 -4 -10 -10z"/>
<path d="M9542 10118 c-14 -14 -16 -35 -3 -42 14 -9 29 17 22 37 -5 14 -9 15
-19 5z"/>
<path d="M9436 10073 c-12 -12 -5 -23 14 -23 11 0 20 4 20 9 0 11 -26 22 -34
14z"/>
<path d="M9555 9990 c-15 -17 -16 -20 -3 -20 19 0 42 26 30 34 -5 3 -17 -3
-27 -14z"/>
<path d="M10460 9690 c0 -5 5 -10 10 -10 6 0 10 5 10 10 0 6 -4 10 -10 10 -5
0 -10 -4 -10 -10z"/>
<path d="M10690 9670 c0 -5 5 -10 10 -10 6 0 10 5 10 10 0 6 -4 10 -10 10 -5
0 -10 -4 -10 -10z"/>
<path d="M10550 9631 c-8 -16 -7 -18 10 -14 27 7 34 19 15 27 -8 3 -19 -3 -25
-13z"/>
<path d="M7560 9630 c0 -5 5 -10 11 -10 5 0 7 5 4 10 -3 6 -8 10 -11 10 -2 0
-4 -4 -4 -10z"/>
<path d="M10405 9600 c-3 -5 -1 -10 4 -10 6 0 11 5 11 10 0 6 -2 10 -4 10 -3
0 -8 -4 -11 -10z"/>
<path d="M10784 9525 c-10 -26 13 -42 32 -23 15 15 15 17 -5 27 -17 10 -22 9
-27 -4z"/>
<path d="M10703 9518 c2 -7 12 -13 22 -13 10 0 20 6 23 13 2 7 -6 12 -23 12
-17 0 -25 -5 -22 -12z"/>
<path d="M6950 9480 c0 -5 7 -10 15 -10 8 0 15 5 15 10 0 6 -7 10 -15 10 -8 0
-15 -4 -15 -10z"/>
<path d="M7600 9419 c0 -5 5 -7 10 -4 6 3 10 8 10 11 0 2 -4 4 -10 4 -5 0 -10
-5 -10 -11z"/>
<path d="M12218 9418 c9 -9 15 -9 24 0 9 9 7 12 -12 12 -19 0 -21 -3 -12 -12z"/>
<path d="M7570 9379 c0 -5 5 -7 10 -4 6 3 10 8 10 11 0 2 -4 4 -10 4 -5 0 -10
-5 -10 -11z"/>
<path d="M12426 9363 c-8 -19 1 -33 20 -33 18 0 18 36 0 43 -8 3 -17 -1 -20
-10z"/>
<path d="M11800 9350 c0 -5 5 -10 11 -10 5 0 7 5 4 10 -3 6 -8 10 -11 10 -2 0
-4 -4 -4 -10z"/>
<path d="M10910 9329 c0 -5 5 -7 10 -4 6 3 10 8 10 11 0 2 -4 4 -10 4 -5 0
-10 -5 -10 -11z"/>
<path d="M6620 9270 c0 -5 5 -10 10 -10 6 0 10 5 10 10 0 6 -4 10 -10 10 -5 0
-10 -4 -10 -10z"/>
<path d="M12600 9230 c-6 -11 -16 -17 -25 -14 -8 4 -15 1 -15 -5 0 -30 68 1
70 32 0 15 -20 6 -30 -13z"/>
<path d="M12885 9130 c-3 -5 -1 -10 4 -10 6 0 11 5 11 10 0 6 -2 10 -4 10 -3
0 -8 -4 -11 -10z"/>
<path d="M12628 9068 c-7 -16 7 -46 17 -37 3 4 2 16 -3 29 -7 18 -10 20 -14 8z"/>
<path d="M12992 9068 c-6 -6 -8 -17 -5 -24 3 -8 0 -14 -6 -14 -17 0 -13 -20 4
-27 18 -6 44 23 45 48 0 21 -24 31 -38 17z"/>
<path d="M12820 9020 c0 -5 5 -10 11 -10 5 0 7 5 4 10 -3 6 -8 10 -11 10 -2 0
-4 -4 -4 -10z"/>
<path d="M13260 8945 c-7 -8 -10 -19 -6 -22 9 -9 38 8 38 22 -1 16 -18 16 -32
0z"/>
<path d="M12993 8925 c-8 -23 4 -30 22 -12 19 20 19 27 0 27 -9 0 -18 -7 -22
-15z"/>
<path d="M13390 8741 c-5 -11 -10 -26 -10 -33 0 -7 6 -4 12 7 6 11 18 26 26
33 14 11 14 12 -1 12 -9 0 -21 -9 -27 -19z"/>
<path d="M13450 8730 c0 -5 5 -10 11 -10 5 0 7 5 4 10 -3 6 -8 10 -11 10 -2 0
-4 -4 -4 -10z"/>
<path d="M12560 8710 c0 -5 7 -7 15 -4 8 4 15 8 15 10 0 2 -7 4 -15 4 -8 0
-15 -4 -15 -10z"/>
<path d="M13000 8710 c0 -5 5 -10 10 -10 6 0 10 5 10 10 0 6 -4 10 -10 10 -5
0 -10 -4 -10 -10z"/>
<path d="M13396 8686 c-3 -14 -4 -31 -1 -38 7 -17 -29 -61 -40 -50 -4 4 -2 -3
4 -16 12 -23 13 -23 32 -6 23 21 29 17 22 -16 -2 -14 -17 -35 -33 -45 -16 -11
-31 -29 -34 -40 -4 -12 -9 -16 -13 -10 -10 13 -90 12 -104 -2 -7 -7 18 -9 76
-8 52 1 89 6 94 13 4 7 12 8 21 2 12 -8 12 -10 -3 -16 -9 -3 -17 -12 -17 -20
0 -8 -5 -14 -11 -14 -6 0 -9 7 -5 15 3 8 1 15 -5 15 -5 0 -12 -7 -15 -15 -7
-17 -34 -21 -34 -5 0 19 -15 10 -37 -23 -13 -18 -23 -48 -23 -67 0 -33 0 -33
19 -14 10 10 14 22 9 25 -12 8 -6 51 7 56 6 2 18 -13 27 -33 15 -32 15 -39 2
-51 -19 -20 -18 -52 4 -59 9 -3 25 -10 34 -15 25 -13 29 -11 26 8 -2 10 3 18
9 18 7 0 24 12 37 26 14 15 30 29 36 31 13 4 2 68 -12 68 -6 0 -8 -7 -4 -15 8
-22 -3 -45 -20 -38 -8 3 -14 -1 -14 -8 0 -21 -23 7 -25 31 -1 16 3 19 22 16
18 -4 24 1 29 22 4 15 14 35 22 45 9 10 11 17 4 17 -6 0 -15 -8 -21 -17 -5
-10 -12 -15 -16 -11 -4 3 1 18 10 32 10 14 13 26 9 26 -5 0 -1 5 9 11 9 5 21
8 26 5 5 -3 11 14 13 39 3 44 -1 50 -31 45 -7 -1 -2 10 13 25 27 27 36 70 14
62 -7 -2 -14 -10 -14 -18 -1 -8 -2 -20 -3 -26 0 -7 -5 -13 -10 -13 -13 0 -21
42 -10 56 6 8 4 13 -10 17 -17 4 -19 1 -14 -32 4 -34 4 -35 -11 -17 -9 11 -16
28 -16 38 0 26 -17 22 -24 -6z m97 -116 c3 -13 0 -20 -9 -20 -8 0 -14 -7 -14
-17 0 -14 -2 -14 -21 2 l-20 19 23 18 c29 23 35 22 41 -2z m-73 -71 c0 -5 -4
-9 -10 -9 -5 0 -10 7 -10 16 0 8 5 12 10 9 6 -3 10 -10 10 -16z"/>
<path d="M12923 8575 c-9 -25 4 -29 17 -6 7 15 7 21 0 21 -6 0 -13 -7 -17 -15z"/>
<path d="M13178 8583 c7 -3 16 -2 19 1 4 3 -2 6 -13 5 -11 0 -14 -3 -6 -6z"/>
<path d="M13330 8560 c0 -13 5 -18 15 -14 12 5 13 10 4 20 -15 19 -19 18 -19
-6z"/>
<path d="M13229 8544 c-12 -14 -11 -16 5 -13 11 2 21 10 24 17 5 17 -13 15
-29 -4z"/>
<path d="M13143 8543 c-15 -5 -17 -23 -4 -23 5 0 11 7 15 15 3 8 4 15 3 14 -1
0 -8 -3 -14 -6z"/>
<path d="M13530 8536 c0 -8 5 -18 10 -21 6 -3 10 1 10 9 0 8 -4 18 -10 21 -5
3 -10 -1 -10 -9z"/>
<path d="M6017 8504 c-3 -3 -1 -19 5 -35 8 -24 13 -27 24 -18 8 6 14 17 14 23
0 13 -35 37 -43 30z"/>
<path d="M13110 8486 c-6 -9 -10 -21 -8 -28 3 -8 9 -4 17 10 15 28 9 39 -9 18z"/>
<path d="M13540 8483 c-23 -28 -40 -61 -40 -78 0 -11 4 -13 13 -8 6 4 20 6 30
5 20 -4 24 24 5 31 -8 4 -4 8 10 12 25 8 27 14 9 39 -12 16 -13 16 -27 -1z"/>
<path d="M13634 8492 c-6 -4 -14 -15 -17 -25 -9 -25 12 -17 31 11 14 22 7 29
-14 14z"/>
<path d="M13580 8481 c0 -6 4 -13 10 -16 6 -3 7 1 4 9 -7 18 -14 21 -14 7z"/>
<path d="M13065 8419 c-4 -6 -5 -12 -2 -15 2 -3 7 2 10 11 7 17 1 20 -8 4z"/>
<path d="M12945 8410 c3 -5 8 -10 11 -10 2 0 4 5 4 10 0 6 -5 10 -11 10 -5 0
-7 -4 -4 -10z"/>
<path d="M13195 8399 c-4 -6 -5 -12 -2 -15 2 -3 7 2 10 11 7 17 1 20 -8 4z"/>
<path d="M13115 8390 c-3 -5 -2 -10 4 -10 5 0 13 5 16 10 3 6 2 10 -4 10 -5 0
-13 -4 -16 -10z"/>
<path d="M13216 8378 c-3 -13 -6 -25 -6 -28 -1 -2 3 -6 9 -8 6 -2 11 5 11 15
0 11 5 24 12 31 9 9 8 12 -4 12 -9 0 -18 -10 -22 -22z"/>
<path d="M13169 8323 c-6 -15 -15 -36 -21 -46 -8 -16 -6 -17 12 -7 15 8 19 17
15 31 -6 18 3 24 28 20 13 -2 3 22 -11 27 -6 2 -17 -9 -23 -25z"/>
<path d="M13240 8305 c0 -8 0 -18 -1 -22 0 -4 4 -9 10 -11 6 -2 11 8 11 22 0
14 -4 26 -10 26 -5 0 -10 -7 -10 -15z"/>
<path d="M12990 8290 c0 -11 4 -20 9 -20 5 0 7 9 4 20 -3 11 -7 20 -9 20 -2 0
-4 -9 -4 -20z"/>
<path d="M12886 8273 c-6 -14 -5 -15 5 -6 7 7 10 15 7 18 -3 3 -9 -2 -12 -12z"/>
<path d="M13060 8270 c0 -5 5 -10 10 -10 6 0 10 5 10 10 0 6 -4 10 -10 10 -5
0 -10 -4 -10 -10z"/>
<path d="M6760 8240 c0 -5 5 -10 11 -10 5 0 7 5 4 10 -3 6 -8 10 -11 10 -2 0
-4 -4 -4 -10z"/>
<path d="M13116 8233 c2 -7 -3 -13 -11 -13 -8 0 -15 -7 -15 -15 0 -21 12 -19
33 5 18 22 22 35 8 26 -5 -4 -11 -3 -14 1 -2 5 -2 2 -1 -4z"/>
<path d="M6140 8189 c0 -5 5 -7 10 -4 6 3 10 8 10 11 0 2 -4 4 -10 4 -5 0 -10
-5 -10 -11z"/>
<path d="M13180 8190 c-13 -8 -13 -10 2 -10 9 0 20 5 23 10 8 13 -5 13 -25 0z"/>
<path d="M6107 8163 c-4 -3 -7 -16 -7 -27 0 -19 1 -19 17 -3 12 11 14 20 7 27
-6 6 -13 7 -17 3z"/>
<path d="M12966 8135 c-9 -26 -7 -32 5 -12 6 10 9 21 6 23 -2 3 -7 -2 -11 -11z"/>
<path d="M13101 8116 c-9 -11 -9 -16 0 -22 7 -4 15 -2 17 4 2 7 8 10 13 6 5
-3 9 2 9 10 0 20 -24 21 -39 2z"/>
<path d="M12930 8100 c0 -11 -5 -20 -11 -20 -5 0 -7 -5 -3 -12 5 -7 0 -9 -14
-6 -27 8 -18 -19 10 -28 24 -7 40 13 32 40 -4 12 -2 16 5 12 6 -4 11 -2 11 3
0 6 -5 11 -11 11 -5 0 -7 5 -4 10 3 6 1 10 -4 10 -6 0 -11 -9 -11 -20z"/>
<path d="M13020 8090 c0 -5 5 -10 11 -10 5 0 7 5 4 10 -3 6 -8 10 -11 10 -2 0
-4 -4 -4 -10z"/>
<path d="M13156 8058 c6 -19 4 -21 -7 -11 -19 15 -42 1 -34 -20 5 -13 12 -14
38 -5 41 14 40 13 27 37 -15 28 -33 27 -24 -1z"/>
<path d="M13056 8054 c-3 -9 -11 -12 -18 -8 -7 4 -4 -2 7 -13 11 -11 22 -16
23 -12 2 5 10 9 18 9 12 0 12 4 4 20 -13 24 -26 26 -34 4z"/>
<path d="M12974 8050 c-28 -11 -34 -22 -27 -48 9 -35 25 -26 18 10 -6 26 -5
30 9 25 8 -3 18 -2 22 4 9 15 2 18 -22 9z"/>
<path d="M13020 7984 c0 -11 -6 -14 -21 -9 -13 5 -19 3 -15 -3 3 -5 -5 -31
-19 -56 -14 -26 -25 -51 -25 -57 0 -17 22 -9 27 11 3 11 9 20 13 20 4 0 16 8
28 18 20 17 20 20 4 35 -10 10 -12 17 -4 17 6 0 16 9 22 20 7 14 7 20 0 20 -5
0 -10 -7 -10 -16z"/>
<path d="M13100 7965 c0 -9 -6 -12 -17 -8 -11 4 -14 3 -9 -5 11 -18 24 -15 36
8 7 14 7 20 0 20 -5 0 -10 -7 -10 -15z"/>
<path d="M12888 7934 c-9 -8 3 -45 14 -42 5 2 9 7 9 11 -1 4 -1 14 -1 22 0 15
-12 20 -22 9z"/>
<path d="M13055 7919 c-4 -6 -4 -13 -1 -16 8 -8 36 5 36 17 0 13 -27 13 -35
-1z"/>
<path d="M12828 7853 c-23 -28 -28 -50 -13 -63 16 -13 21 -6 30 43 8 41 5 45
-17 20z"/>
<path d="M6120 7830 c0 -5 5 -10 10 -10 6 0 10 5 10 10 0 6 -4 10 -10 10 -5 0
-10 -4 -10 -10z"/>
<path d="M12770 7740 c-12 -23 2 -27 19 -6 8 9 8 16 2 20 -6 4 -15 -3 -21 -14z"/>
<path d="M12833 7723 c-4 -10 -10 -20 -13 -23 -15 -11 -21 -50 -8 -50 14 0 58
59 58 78 0 19 -30 14 -37 -5z"/>
<path d="M12670 7710 c0 -5 5 -10 11 -10 5 0 7 5 4 10 -3 6 -8 10 -11 10 -2 0
-4 -4 -4 -10z"/>
<path d="M12997 7669 c-8 -29 3 -47 15 -25 5 9 5 23 0 32 -8 14 -10 13 -15 -7z"/>
<path d="M13090 7679 c0 -6 -7 -9 -15 -5 -8 3 -15 1 -15 -3 0 -14 23 -19 43
-9 21 11 22 28 2 28 -8 0 -15 -5 -15 -11z"/>
<path d="M13068 7623 c7 -3 16 -2 19 1 4 3 -2 6 -13 5 -11 0 -14 -3 -6 -6z"/>
<path d="M12763 7595 c0 -14 3 -25 8 -25 5 0 9 11 9 25 0 14 -4 25 -9 25 -5 0
-8 -11 -8 -25z"/>
<path d="M13017 7613 c-4 -3 -7 -17 -7 -30 0 -16 -6 -23 -19 -23 -11 0 -23 -4
-26 -10 -4 -6 6 -10 24 -10 34 0 45 13 47 53 1 26 -6 34 -19 20z"/>
<path d="M6370 7559 c0 -5 5 -7 10 -4 6 3 10 8 10 11 0 2 -4 4 -10 4 -5 0 -10
-5 -10 -11z"/>
<path d="M12826 7554 c-9 -24 -7 -28 9 -14 17 14 20 30 6 30 -5 0 -12 -7 -15
-16z"/>
<path d="M12905 7560 c3 -5 8 -10 11 -10 2 0 4 5 4 10 0 6 -5 10 -11 10 -5 0
-7 -4 -4 -10z"/>
<path d="M12750 7549 c0 -5 5 -7 10 -4 6 3 10 8 10 11 0 2 -4 4 -10 4 -5 0
-10 -5 -10 -11z"/>
<path d="M13306 7531 c-4 -7 -5 -15 -2 -18 9 -9 19 4 14 18 -4 11 -6 11 -12 0z"/>
<path d="M12880 7510 c0 -5 5 -10 10 -10 6 0 10 5 10 10 0 6 -4 10 -10 10 -5
0 -10 -4 -10 -10z"/>
<path d="M12933 7475 c-9 -25 4 -29 17 -6 7 15 7 21 0 21 -6 0 -13 -7 -17 -15z"/>
<path d="M13264 7465 c-22 -34 -7 -55 17 -24 10 13 19 30 19 37 0 20 -18 14
-36 -13z"/>
<path d="M12737 7443 c-11 -13 -17 -27 -14 -30 3 -2 13 7 23 21 22 34 15 42
-9 9z"/>
<path d="M13003 7460 c-13 -6 -23 -18 -23 -30 0 -26 30 -26 37 0 3 11 12 20
20 20 8 0 11 5 8 10 -7 12 -13 12 -42 0z"/>
<path d="M12820 7449 c0 -5 5 -7 10 -4 6 3 10 8 10 11 0 2 -4 4 -10 4 -5 0
-10 -5 -10 -11z"/>
<path d="M12955 7410 c-3 -5 -1 -10 4 -10 6 0 11 5 11 10 0 6 -2 10 -4 10 -3
0 -8 -4 -11 -10z"/>
<path d="M12990 7366 c0 -2 9 -6 20 -9 11 -3 20 -1 20 4 0 5 -9 9 -20 9 -11 0
-20 -2 -20 -4z"/>
<path d="M13160 7225 c0 -9 5 -15 11 -13 6 2 11 8 11 13 0 5 -5 11 -11 13 -6
2 -11 -4 -11 -13z"/>
<path d="M13007 7189 c-7 -28 -6 -31 10 -14 6 6 8 18 3 24 -5 9 -9 5 -13 -10z"/>
<path d="M12650 7169 c0 -5 5 -7 10 -4 6 3 10 8 10 11 0 2 -4 4 -10 4 -5 0
-10 -5 -10 -11z"/>
<path d="M13130 7163 c0 -5 5 -14 12 -21 6 -6 8 -15 4 -19 -4 -4 -11 -1 -16 7
-7 11 -9 9 -7 -8 1 -24 15 -25 31 0 7 12 5 20 -7 33 -9 9 -17 13 -17 8z"/>
<path d="M13230 7161 c0 -7 -4 -10 -9 -7 -5 3 -11 -5 -13 -19 -3 -16 -1 -25 7
-25 12 0 28 50 19 59 -2 2 -4 -1 -4 -8z"/>
<path d="M12995 7130 c-19 -8 -19 -9 3 -9 12 -1 22 4 22 9 0 6 -1 10 -2 9 -2
0 -12 -4 -23 -9z"/>
<path d="M6500 7110 c-9 -16 -8 -20 5 -20 8 0 15 9 15 20 0 11 -2 20 -5 20 -2
0 -9 -9 -15 -20z"/>
<path d="M13360 7110 c0 -5 5 -10 10 -10 6 0 10 5 10 10 0 6 -4 10 -10 10 -5
0 -10 -4 -10 -10z"/>
<path d="M13260 7084 c0 -8 5 -12 10 -9 6 3 10 10 10 16 0 5 -4 9 -10 9 -5 0
-10 -7 -10 -16z"/>
<path d="M13072 7053 c-17 -20 -30 -38 -28 -41 3 -2 13 6 23 17 9 12 23 21 29
21 6 0 14 9 17 20 8 29 -4 25 -41 -17z"/>
<path d="M13185 7067 c-4 -10 -5 -21 -1 -24 10 -10 18 4 13 24 -4 17 -4 17
-12 0z"/>
<path d="M6511 7054 c0 -11 3 -14 6 -6 3 7 2 16 -1 19 -3 4 -6 -2 -5 -13z"/>
<path d="M12977 7032 c-65 -69 -105 -136 -57 -95 11 10 20 23 20 30 0 7 7 13
15 13 8 0 15 5 15 10 0 6 7 10 16 10 8 0 12 5 8 11 -3 6 -1 15 6 19 7 4 8 10
3 13 -6 4 -17 -1 -26 -11z"/>
<path d="M13142 7025 c-2 -26 13 -42 23 -25 7 12 -3 50 -13 50 -4 0 -9 -11
-10 -25z"/>
<path d="M13300 7025 c-1 -5 -2 -14 -1 -19 1 -5 -4 -13 -11 -17 -10 -6 -10
-11 -1 -20 10 -10 17 -9 33 6 23 21 29 55 6 36 -11 -10 -15 -8 -19 6 -3 10 -6
14 -7 8z"/>
<path d="M13011 6978 c0 -16 2 -28 7 -28 13 1 57 39 51 45 -4 3 -14 -1 -22
-10 -20 -19 -24 -19 -30 3 -3 10 -5 6 -6 -10z"/>
<path d="M13101 6958 c-17 -27 -9 -32 18 -9 16 14 18 20 8 24 -7 3 -19 -4 -26
-15z"/>
<path d="M12767 6956 c-4 -10 -1 -13 9 -9 7 3 14 9 14 14 0 14 -17 10 -23 -5z"/>
<path d="M12960 6951 c-12 -24 -13 -31 -1 -31 5 0 11 11 13 25 6 30 2 32 -12
6z"/>
<path d="M13220 6951 c0 -6 10 -20 22 -31 19 -17 20 -22 8 -30 -8 -5 -11 -12
-7 -16 4 -4 15 -1 24 8 15 15 13 19 -16 48 -17 17 -31 27 -31 21z"/>
<path d="M13160 6916 c0 -2 7 -9 15 -16 9 -7 15 -8 15 -2 0 5 -7 12 -15 16 -8
3 -15 4 -15 2z"/>
<path d="M12966 6891 c-11 -12 -16 -24 -12 -28 9 -9 39 22 34 37 -2 7 -10 4
-22 -9z"/>
<path d="M13155 6880 c-3 -5 1 -10 10 -10 9 0 13 5 10 10 -3 6 -8 10 -10 10
-2 0 -7 -4 -10 -10z"/>
<path d="M13120 6880 c-1 -3 -4 -15 -5 -28 -1 -15 1 -20 7 -14 6 6 8 18 5 28
-3 11 -6 17 -7 14z"/>
<path d="M13205 6870 c3 -5 8 -10 11 -10 2 0 4 5 4 10 0 6 -5 10 -11 10 -5 0
-7 -4 -4 -10z"/>
<path d="M13032 6847 c-12 -13 -22 -27 -22 -33 0 -5 5 -1 11 9 5 9 17 17 24
17 8 0 15 7 15 15 0 20 -3 19 -28 -8z"/>
<path d="M13196 6824 c-4 -9 1 -14 14 -14 23 0 27 15 6 23 -8 3 -17 -1 -20 -9z"/>
<path d="M13133 6784 c0 -18 4 -24 14 -20 8 3 19 6 24 6 5 0 9 5 9 11 0 5 -4
8 -9 4 -5 -3 -16 1 -24 9 -13 13 -14 12 -14 -10z"/>
<path d="M13060 6749 c-13 -9 -13 -10 2 -6 9 3 19 -1 22 -9 6 -16 56 -20 56
-4 0 6 -9 10 -19 10 -11 0 -23 5 -26 10 -8 13 -16 12 -35 -1z"/>
<path d="M12780 6740 c0 -5 5 -10 11 -10 5 0 7 5 4 10 -3 6 -8 10 -11 10 -2 0
-4 -4 -4 -10z"/>
<path d="M6840 6729 c0 -5 5 -7 10 -4 6 3 10 8 10 11 0 2 -4 4 -10 4 -5 0 -10
-5 -10 -11z"/>
<path d="M13025 6726 c-6 -7 -23 -30 -38 -49 -21 -26 -26 -40 -20 -52 8 -13
12 -11 24 12 18 35 29 47 52 56 14 5 16 11 7 27 -13 24 -12 24 -25 6z"/>
<path d="M12888 6663 c-10 -2 -18 -9 -18 -14 0 -6 8 -5 20 1 11 6 20 13 20 15
0 3 -1 4 -2 4 -2 -1 -11 -3 -20 -6z"/>
<path d="M13056 6629 c-22 -22 -15 -25 15 -6 17 10 22 9 35 -7 7 -11 17 -17
20 -13 7 7 -33 48 -45 46 -3 0 -15 -9 -25 -20z"/>
<path d="M13000 6585 c0 -9 5 -15 11 -13 6 2 11 8 11 13 0 5 -5 11 -11 13 -6
2 -11 -4 -11 -13z"/>
<path d="M12920 6570 c-14 -11 -20 -20 -14 -20 14 0 50 27 44 33 -3 3 -16 -3
-30 -13z"/>
<path d="M13086 6575 c4 -9 11 -14 16 -13 15 5 11 23 -6 26 -11 2 -14 -2 -10
-13z"/>
<path d="M12665 6570 c-3 -5 -1 -10 4 -10 6 0 11 5 11 10 0 6 -2 10 -4 10 -3
0 -8 -4 -11 -10z"/>
<path d="M6876 6555 c-3 -8 -1 -15 4 -15 13 0 22 18 11 24 -5 3 -11 -1 -15 -9z"/>
<path d="M12992 6533 c-7 -2 -17 -14 -23 -24 -10 -20 -9 -20 20 -4 41 20 43
44 3 28z"/>
<path d="M12885 6500 c-3 -5 -1 -10 4 -10 6 0 11 5 11 10 0 6 -2 10 -4 10 -3
0 -8 -4 -11 -10z"/>
<path d="M12850 6479 c0 -5 5 -7 10 -4 6 3 10 8 10 11 0 2 -4 4 -10 4 -5 0
-10 -5 -10 -11z"/>
<path d="M12788 6380 c-16 -16 -34 -30 -39 -30 -5 0 -9 -7 -9 -15 0 -8 -5 -15
-11 -15 -5 0 -7 -4 -4 -10 3 -5 10 -10 15 -10 10 0 110 95 110 105 0 15 -35 1
-62 -25z m-14 -45 c-7 -16 -24 -21 -24 -6 0 8 7 13 27 20 1 1 0 -6 -3 -14z"/>
<path d="M7735 5890 c-3 -5 -1 -10 4 -10 6 0 11 5 11 10 0 6 -2 10 -4 10 -3 0
-8 -4 -11 -10z"/>
<path d="M7915 5770 c-3 -5 1 -10 9 -10 8 0 18 5 21 10 3 6 -1 10 -9 10 -8 0
-18 -4 -21 -10z"/>
<path d="M11770 5630 c0 -5 5 -10 10 -10 6 0 10 5 10 10 0 6 -4 10 -10 10 -5
0 -10 -4 -10 -10z"/>
<path d="M8827 5323 c-15 -14 -6 -23 23 -23 32 0 40 14 14 24 -20 8 -29 8 -37
-1z"/>
<path d="M9085 5320 c3 -5 8 -10 11 -10 2 0 4 5 4 10 0 6 -5 10 -11 10 -5 0
-7 -4 -4 -10z"/>
<path d="M10625 5270 c-3 -5 -1 -10 4 -10 6 0 11 5 11 10 0 6 -2 10 -4 10 -3
0 -8 -4 -11 -10z"/>
<path d="M10165 5251 c-6 -11 20 -33 28 -24 4 3 7 10 7 14 0 11 -29 19 -35 10z"/>
<path d="M16565 1170 c-3 -5 -1 -10 4 -10 6 0 11 5 11 10 0 6 -2 10 -4 10 -3
0 -8 -4 -11 -10z"/>
<path d="M17620 850 c0 -5 5 -10 10 -10 6 0 10 5 10 10 0 6 -4 10 -10 10 -5 0
-10 -4 -10 -10z"/>
</g>
</svg>
