<?xml version="1.0" standalone="no"?>
<!DOCTYPE svg PUBLIC "-//W3C//DTD SVG 20010904//EN"
 "http://www.w3.org/TR/2001/REC-SVG-20010904/DTD/svg10.dtd">
<svg version="1.0" xmlns="http://www.w3.org/2000/svg"
 width="1920.000000pt" height="2837.000000pt" viewBox="0 0 1920.000000 2837.000000"
 preserveAspectRatio="xMidYMid meet">

<g transform="translate(0.000000,2837.000000) scale(0.100000,-0.100000)"
fill="#000000" stroke="none">
<path d="M0 14185 l0 -14185 9600 0 9600 0 0 14185 0 14185 -9600 0 -9600 0 0
-14185z m9454 4190 c10 -7 44 -17 75 -20 31 -3 87 -11 124 -17 60 -9 71 -8 87
7 20 18 56 13 45 -5 -4 -6 11 -10 39 -10 25 0 47 -4 50 -9 3 -4 29 -11 58 -15
93 -13 99 -14 111 -24 7 -6 91 -18 187 -27 257 -24 348 -44 398 -87 27 -23 42
-28 85 -28 31 0 70 -9 97 -21 25 -11 61 -22 80 -23 49 -4 113 -17 125 -26 19
-14 163 -60 189 -60 14 0 26 -4 26 -10 0 -5 16 -10 36 -10 23 0 42 -7 51 -17
8 -10 12 -12 8 -5 -10 20 19 14 32 -7 7 -11 27 -22 45 -26 18 -4 46 -18 61
-31 16 -13 36 -24 46 -24 9 0 32 -11 51 -25 19 -14 46 -25 61 -25 14 0 32 -6
38 -14 7 -8 23 -17 37 -20 13 -4 29 -17 33 -29 7 -18 17 -23 46 -24 28 -1 44
-9 65 -32 16 -16 41 -33 57 -36 78 -16 252 -123 374 -230 26 -22 58 -48 73
-58 15 -10 24 -22 21 -27 -3 -4 20 -32 51 -62 33 -31 58 -64 61 -81 3 -16 12
-31 19 -34 8 -3 14 -12 14 -20 0 -7 6 -13 13 -11 16 3 129 -111 151 -153 9
-19 21 -41 26 -49 89 -150 178 -323 220 -430 48 -124 52 -130 97 -151 24 -11
52 -17 62 -14 10 3 31 1 45 -5 15 -5 59 -17 98 -25 38 -8 102 -32 141 -52 40
-21 104 -52 142 -68 39 -16 93 -42 120 -57 56 -31 169 -87 230 -113 21 -9 56
-30 76 -46 20 -16 42 -29 47 -29 6 0 23 -11 39 -24 15 -13 52 -36 82 -52 95
-51 101 -55 101 -64 0 -5 10 -12 22 -16 43 -13 185 -135 218 -188 15 -22 37
-50 50 -61 12 -11 28 -32 36 -46 13 -27 58 -81 105 -128 57 -56 192 -141 225
-141 8 0 22 -4 32 -9 9 -6 62 -31 117 -57 140 -67 247 -141 273 -190 6 -12 32
-35 57 -50 62 -40 59 -53 -10 -42 -42 6 -72 20 -125 58 -38 27 -72 45 -75 40
-3 -5 -24 -14 -46 -20 -35 -10 -39 -14 -33 -33 6 -19 5 -20 -8 -9 -12 10 -18
9 -28 -2 -6 -9 -9 -19 -6 -24 3 -6 -8 -12 -24 -14 -29 -4 -40 5 -20 17 6 3 10
18 10 32 0 23 -2 24 -17 12 -14 -12 -16 -12 -11 1 3 9 15 14 28 12 22 -2 39
12 40 31 0 4 -8 7 -17 7 -13 0 -14 3 -5 12 19 19 14 29 -12 22 -17 -4 -27 0
-34 12 -9 15 -12 16 -26 5 -9 -8 -20 -11 -24 -7 -4 4 5 18 21 30 32 26 34 41
7 58 -11 7 -20 19 -20 26 0 9 -14 13 -42 12 -24 -1 -52 1 -64 5 -13 4 -25 1
-33 -9 -8 -9 -25 -16 -40 -16 -14 -1 -37 -7 -50 -14 -25 -14 -51 -11 -51 5 0
11 50 34 95 45 29 7 29 7 -15 16 -30 6 -60 5 -88 -3 -35 -10 -45 -10 -52 1 -5
8 -19 11 -39 7 -27 -6 -31 -4 -31 14 0 12 8 23 20 26 11 3 20 10 20 16 0 7 4
7 12 -1 17 -17 38 -15 38 3 0 22 -43 29 -146 22 -83 -6 -145 -23 -164 -46 -8
-10 -69 -51 -75 -51 -4 0 -13 -7 -21 -15 -8 -8 -23 -20 -33 -27 -10 -7 -30
-34 -45 -60 -15 -25 -34 -52 -42 -59 -9 -7 -26 -33 -38 -58 -29 -59 -79 -201
-73 -207 3 -3 -1 -31 -8 -62 -28 -118 -17 -266 22 -313 7 -8 13 -25 13 -37 0
-11 7 -27 15 -36 8 -8 15 -19 15 -25 0 -6 25 -23 55 -37 30 -15 55 -31 55 -36
0 -5 16 -18 35 -29 19 -12 35 -26 35 -31 0 -15 -68 -3 -89 15 -18 16 -56 27
-121 33 -25 3 -54 9 -65 14 -39 16 -241 52 -293 52 -39 0 -60 -6 -75 -20 -12
-11 -35 -23 -52 -27 -44 -12 -190 -6 -251 9 -14 4 -32 2 -39 -4 -18 -15 -75
-2 -68 16 4 11 -2 13 -25 8 -21 -4 -31 -2 -35 10 -4 10 -18 16 -36 16 -22 0
-32 -6 -42 -28 -13 -30 -57 -68 -66 -58 -4 3 0 12 9 19 8 6 18 20 21 29 5 16
4 16 -15 5 -17 -10 -22 -9 -25 1 -3 7 -15 22 -26 33 -20 19 -21 28 -20 207 2
198 5 256 18 285 5 12 2 22 -10 31 -14 10 -16 25 -13 79 2 49 0 67 -9 67 -8 0
-13 14 -13 36 0 19 -4 54 -9 77 -6 23 -13 55 -16 72 -5 23 -9 26 -15 15 -8
-15 13 -188 29 -241 5 -15 5 -33 0 -40 -5 -8 -9 -28 -9 -46 0 -27 3 -30 23
-26 l22 6 -23 -23 c-15 -14 -22 -30 -18 -42 3 -12 -5 -37 -20 -59 -13 -21 -29
-61 -35 -89 -7 -32 -16 -50 -25 -50 -8 0 -19 -11 -24 -25 -5 -14 -16 -28 -24
-31 -8 -3 -20 -22 -27 -42 -6 -21 -23 -50 -38 -65 -22 -24 -23 -29 -11 -37 13
-8 13 -10 1 -10 -20 0 -51 -30 -51 -48 0 -25 -31 -52 -61 -52 -17 0 -41 -12
-61 -30 -18 -17 -41 -33 -50 -36 -21 -6 -25 -53 -7 -71 17 -17 3 -49 -15 -34
-7 6 -22 8 -32 4 -16 -6 -15 -3 4 24 41 58 4 51 -106 -20 -23 -15 -47 -39 -52
-52 -5 -14 -14 -25 -20 -25 -5 0 -10 -4 -10 -10 0 -5 7 -10 15 -10 18 0 64
-49 65 -68 0 -10 28 -12 138 -7 76 3 165 10 197 14 71 10 95 5 95 -20 0 -11
10 -23 24 -29 29 -11 72 -68 60 -80 -22 -21 -233 -7 -309 21 -16 6 -88 17
-160 25 -71 7 -153 19 -181 26 -46 10 -60 9 -126 -11 -70 -20 -108 -20 -108 0
0 5 -5 9 -11 9 -6 0 -9 -6 -6 -14 3 -8 0 -16 -6 -19 -17 -6 -114 10 -149 24
-15 6 -33 9 -40 6 -25 -8 -217 73 -231 99 -4 8 -16 14 -25 14 -9 0 -30 9 -47
20 -16 11 -39 20 -50 20 -12 0 -38 9 -60 20 -22 11 -44 20 -50 20 -21 0 -127
62 -194 113 -75 57 -278 261 -286 287 -4 11 -26 30 -51 42 -25 11 -51 33 -59
47 -7 15 -34 40 -60 57 -25 16 -56 45 -68 64 -25 42 -35 50 -63 50 -14 0 -45
26 -85 69 -35 39 -72 72 -84 76 -11 3 -29 13 -40 23 -23 21 -85 98 -85 107 0
7 -38 61 -61 88 -9 10 -45 64 -80 119 -64 103 -69 109 -151 196 -27 28 -49 55
-49 61 -1 6 -2 14 -3 19 -2 8 -27 36 -131 142 -107 108 -125 123 -177 149 -27
12 -48 27 -48 32 0 5 -9 9 -20 9 -12 0 -25 12 -35 33 -8 17 -24 43 -35 57 -16
20 -22 22 -29 11 -7 -11 -12 -8 -26 13 -10 14 -25 26 -34 26 -9 0 -27 8 -41
17 -13 9 -42 19 -65 21 -82 7 -90 8 -110 17 -11 5 -23 13 -27 19 -9 14 -108
18 -108 4 0 -6 -12 -7 -31 -3 -20 5 -55 -1 -102 -15 -40 -12 -90 -26 -112 -32
-22 -7 -46 -16 -52 -21 -16 -11 -47 -1 -38 13 3 5 15 10 26 10 10 0 19 4 19
10 0 5 14 17 31 25 39 21 31 30 -13 16 -18 -6 -49 -13 -69 -16 -20 -3 -49 -17
-63 -30 -15 -14 -33 -25 -41 -25 -8 0 -47 -29 -88 -65 -41 -36 -79 -65 -85
-65 -5 0 -12 -7 -15 -15 -4 -8 -24 -25 -45 -39 -22 -13 -68 -53 -103 -89 -178
-179 -219 -230 -263 -322 -10 -22 -23 -48 -27 -57 -12 -24 -11 -58 1 -58 6 0
10 -7 10 -15 0 -8 -4 -15 -9 -15 -22 0 -33 -61 -26 -148 5 -60 3 -102 -6 -130
-10 -35 -9 -50 5 -94 22 -70 42 -100 108 -156 31 -26 72 -67 91 -92 48 -60 47
-59 160 -151 54 -43 109 -82 122 -85 13 -3 34 -21 46 -38 16 -24 30 -33 51
-34 37 -1 212 -86 230 -111 8 -12 32 -22 61 -26 71 -11 125 -62 82 -79 -8 -3
-14 -11 -13 -17 2 -8 -21 -12 -72 -14 -41 0 -64 2 -50 5 l25 6 -24 13 c-21 12
-26 11 -38 -4 -11 -16 -16 -17 -37 -6 -13 8 -29 10 -35 7 -9 -6 -47 9 -106 41
-11 6 -45 21 -75 33 -145 59 -438 210 -483 249 -27 23 -72 53 -100 67 -50 25
-147 109 -147 127 0 4 -11 23 -25 41 -14 18 -25 37 -25 43 0 5 -13 22 -29 37
-16 16 -32 38 -35 51 -3 12 -19 28 -35 35 -16 6 -32 18 -35 26 -3 8 -12 14
-20 14 -21 0 -81 104 -100 175 -9 33 -24 77 -32 99 -8 21 -14 57 -14 80 0 22
0 90 0 150 0 59 4 125 10 145 15 57 16 167 2 184 -20 24 3 99 64 207 7 14 14
40 14 57 0 28 5 35 35 47 25 11 33 19 29 31 -4 11 4 19 29 30 20 8 50 35 72
65 20 27 42 50 49 50 7 0 22 10 34 23 30 32 45 43 89 65 22 11 45 28 52 36 8
9 39 30 70 46 31 17 62 40 70 52 12 20 12 21 -18 15 -35 -7 -61 0 -61 17 1 15
72 64 106 72 14 4 28 13 31 20 3 8 12 14 20 14 22 0 73 33 73 47 0 15 43 38
90 48 19 4 46 15 60 25 25 17 43 23 139 42 40 8 59 8 73 -1 14 -8 17 -8 16 0
-2 9 56 13 209 15 117 1 230 5 250 8 72 12 262 16 268 6 3 -6 18 -10 33 -10
37 0 222 -28 302 -46 36 -8 77 -14 92 -14 14 0 53 -6 85 -14 32 -8 101 -24
153 -36 126 -29 346 -102 390 -129 19 -11 44 -21 54 -21 11 0 52 -16 93 -35
41 -19 81 -35 90 -35 31 0 205 -83 219 -105 8 -12 33 -28 57 -34 78 -24 132
-44 194 -72 34 -16 66 -29 71 -29 4 0 32 -11 60 -25 29 -14 56 -25 62 -25 5 0
31 -13 57 -28 26 -16 56 -31 66 -35 9 -3 17 -11 17 -16 0 -18 91 -63 114 -57
17 4 30 -2 51 -24 17 -18 39 -30 54 -30 14 0 64 -15 111 -32 55 -21 105 -33
140 -34 30 0 62 -3 70 -7 37 -14 72 -17 90 -7 11 6 55 13 98 15 43 2 92 11
108 20 16 8 43 15 61 15 36 0 53 17 32 32 -11 7 -11 8 2 6 8 -2 32 6 52 17 29
15 37 26 37 47 0 25 3 27 38 25 31 -2 37 1 37 18 0 14 8 21 29 25 34 6 46 26
19 33 -19 4 -16 7 33 22 11 4 14 12 10 29 -4 18 -1 25 14 29 16 4 20 14 20 52
0 42 9 68 57 173 21 43 12 104 -21 147 -14 18 -26 45 -26 59 0 14 -4 35 -9 48
-6 13 -12 39 -16 60 -4 28 -12 38 -33 46 -16 5 -43 31 -62 60 -23 33 -44 53
-62 57 -15 4 -32 13 -39 21 -7 8 -35 30 -63 49 -29 19 -66 53 -84 77 -22 29
-48 49 -80 62 -28 11 -74 44 -112 81 -36 35 -78 66 -95 70 -16 3 -46 22 -67
41 -21 19 -45 34 -53 34 -9 0 -38 11 -65 25 -27 14 -61 25 -74 25 -29 0 -113
35 -172 72 -22 14 -69 33 -103 42 -35 9 -77 27 -93 41 -16 14 -39 25 -50 25
-11 0 -54 14 -96 31 -47 18 -103 33 -142 36 -36 2 -71 9 -78 15 -7 6 -25 12
-40 13 -15 1 -49 8 -77 15 -58 14 -97 16 -180 7 -33 -3 -108 -10 -167 -16
-168 -16 -212 -23 -233 -37 -11 -8 -31 -14 -46 -14 -33 0 -89 -19 -89 -31 0
-5 -9 -9 -20 -9 -12 0 -35 -8 -53 -17 -18 -9 -93 -38 -167 -63 -109 -37 -135
-50 -136 -66 -1 -10 -2 -25 -3 -31 -1 -7 -10 -13 -22 -13 -11 0 -33 -8 -47
-18 -15 -10 -56 -31 -92 -46 -36 -16 -81 -40 -100 -55 -19 -14 -57 -41 -85
-60 -27 -19 -74 -58 -104 -88 -30 -29 -58 -53 -63 -53 -4 0 -8 -4 -8 -10 0 -5
-12 -26 -26 -47 -21 -31 -35 -40 -77 -50 -29 -7 -55 -12 -58 -13 -4 0 -18 12
-32 26 -14 14 -31 23 -37 19 -5 -3 -15 6 -21 22 -10 26 -5 57 17 109 3 6 -3
14 -13 16 -39 10 -102 138 -68 138 17 0 18 5 6 28 -4 9 -11 34 -15 55 -6 33
-5 37 14 37 25 0 26 12 1 34 -19 17 -19 18 0 50 20 35 18 61 -7 70 -10 4 -13
13 -9 25 3 12 0 21 -10 25 -19 7 -20 55 0 62 8 4 15 11 15 18 0 6 13 23 30 38
16 14 34 38 40 52 5 14 32 42 60 62 53 38 62 58 30 67 -20 5 -37 33 -27 43 3
3 15 0 27 -6 24 -13 55 -6 45 10 -5 8 -11 8 -19 1 -9 -8 -18 -6 -30 8 -14 15
-15 23 -5 47 7 16 11 35 10 42 -1 6 6 12 17 12 25 0 67 56 47 64 -7 2 -15 0
-17 -6 -6 -18 -28 1 -28 24 0 14 5 18 15 14 21 -8 31 22 14 39 -18 17 -59 2
-59 -22 -1 -20 -57 -90 -65 -81 -3 3 3 21 14 39 12 19 21 46 21 62 0 15 5 27
10 27 6 0 10 13 10 29 0 29 38 69 126 134 23 17 31 27 21 27 -21 0 -22 16 -2
24 9 3 18 -1 21 -8 3 -8 13 -12 22 -10 9 2 60 8 112 14 145 16 212 28 223 39
14 14 28 13 51 -4z m176 -1130 c0 -8 -4 -15 -10 -15 -5 0 -10 7 -10 15 0 8 5
15 10 15 6 0 10 -7 10 -15z m-1840 -895 c0 -5 -2 -10 -4 -10 -3 0 -8 5 -11 10
-3 6 -1 10 4 10 6 0 11 -4 11 -10z m-410 -361 c0 -5 -4 -9 -10 -9 -5 0 -10 7
-10 16 0 8 5 12 10 9 6 -3 10 -10 10 -16z m7067 -785 c-3 -3 -12 -4 -19 -1 -8
3 -5 6 6 6 11 1 17 -2 13 -5z m-5944 -182 c9 -8 17 -19 17 -24 0 -12 -53 17
-71 38 -13 15 -12 16 11 9 14 -4 33 -14 43 -23z m6347 -12 c0 -5 -4 -10 -10
-10 -5 0 -10 5 -10 10 0 6 5 10 10 10 6 0 10 -4 10 -10z m-390 -54 c0 -3 -4
-8 -10 -11 -5 -3 -10 -1 -10 4 0 6 5 11 10 11 6 0 10 -2 10 -4z m-25 -36 c-3
-5 -21 -10 -38 -9 -31 1 -31 1 -7 9 36 11 52 11 45 0z m285 -40 c12 -8 12 -10
-3 -16 -22 -8 -50 3 -42 16 8 12 25 13 45 0z m234 -6 c25 -10 20 -52 -6 -56
-12 -2 -28 -14 -35 -27 -6 -13 -19 -28 -27 -33 -20 -11 -42 0 -28 14 6 6 8 17
5 25 -4 10 8 28 33 49 46 39 39 35 58 28z m-122 -66 c-5 -5 -19 -5 -35 1 -29
11 -30 12 -21 35 5 14 10 13 36 -5 18 -13 26 -25 20 -31z m611 38 c9 -7 17
-18 17 -24 0 -6 16 -26 35 -43 19 -18 35 -40 35 -49 0 -18 37 -57 72 -74 14
-7 24 -22 26 -40 2 -18 13 -33 32 -44 16 -9 35 -27 41 -39 7 -13 16 -23 21
-23 11 0 107 -147 114 -177 4 -14 15 -28 26 -31 10 -2 18 -9 17 -16 -3 -25 2
-36 16 -36 19 0 38 -36 31 -58 -3 -9 3 -30 14 -47 11 -16 20 -37 20 -46 0 -9
8 -23 18 -32 9 -9 25 -33 36 -54 10 -21 22 -46 27 -55 5 -10 9 -27 9 -38 0
-11 7 -23 15 -26 8 -4 15 -13 15 -20 0 -27 -35 3 -60 50 -13 25 -27 46 -32 46
-12 0 -10 -14 4 -28 9 -9 7 -12 -11 -12 -20 0 -21 -2 -11 -15 7 -8 18 -15 26
-15 7 0 18 -9 24 -20 6 -11 18 -20 27 -20 13 0 13 -3 2 -16 -11 -14 -13 -14
-21 0 -5 9 -22 16 -38 16 -29 0 -53 21 -32 28 7 2 4 11 -8 24 -13 14 -18 29
-14 44 5 18 -1 27 -28 44 -18 11 -49 20 -68 20 -32 0 -37 4 -49 38 -8 20 -18
40 -23 43 -13 9 9 50 25 46 8 -1 12 15 11 53 0 44 -7 65 -33 108 -27 44 -37
52 -62 52 -19 0 -39 9 -54 26 -16 17 -30 24 -42 20 -29 -9 -100 -82 -143 -146
-8 -12 -20 -28 -27 -35 -7 -7 -15 -25 -19 -40 -4 -14 -13 -29 -21 -32 -8 -3
-12 -11 -9 -18 3 -8 -2 -16 -10 -19 -8 -3 -14 -15 -14 -26 0 -11 -7 -23 -15
-26 -8 -4 -15 -14 -15 -25 0 -10 -9 -26 -19 -36 -11 -10 -23 -36 -27 -58 -4
-21 -15 -58 -26 -82 -15 -35 -24 -43 -54 -49 -46 -8 -65 9 -71 69 -7 57 30
181 63 214 13 13 24 30 24 38 0 8 4 16 9 20 5 3 13 20 17 38 3 17 15 43 25 56
11 13 19 34 19 46 0 25 38 55 68 55 32 0 47 26 33 56 -10 22 -8 28 16 49 16
13 32 25 36 25 5 0 6 8 2 19 -3 12 0 21 10 25 11 4 14 13 10 26 -4 13 -2 20 7
20 8 0 9 3 2 8 -22 15 -44 58 -44 85 0 15 -7 41 -15 58 -9 16 -13 33 -11 38 3
5 -1 14 -9 21 -17 14 -20 40 -4 40 6 0 8 9 4 20 -7 23 11 26 38 6z m-403 -270
c0 -3 -4 -8 -10 -11 -5 -3 -10 -1 -10 4 0 6 5 11 10 11 6 0 10 -2 10 -4z
m-340 -60 c0 -3 -4 -8 -10 -11 -5 -3 -10 -1 -10 4 0 6 5 11 10 11 6 0 10 -2
10 -4z m-37 -107 c-3 -10 -9 -19 -14 -19 -11 0 -12 44 -2 53 10 11 21 -13 16
-34z m677 -40 c0 -5 -7 -9 -15 -9 -15 0 -20 12 -9 23 8 8 24 -1 24 -14z
m-2526 -4 c-6 -16 -24 -21 -24 -7 0 11 11 22 21 22 5 0 6 -7 3 -15z m-24 -44
c0 -14 -18 -23 -30 -16 -6 4 -8 11 -5 16 8 12 35 12 35 0z m71 -113 c3 -29 -4
-45 -34 -75 -35 -37 -54 -42 -64 -15 -4 9 -11 20 -17 24 -6 5 -2 8 11 8 14 0
29 11 39 30 21 35 63 53 65 28z m-185 -103 c18 -17 10 -35 -15 -35 -26 0 -31
10 -18 31 14 23 15 23 33 4z m-228 -7 c-6 -18 -28 -21 -28 -4 0 9 7 16 16 16
9 0 14 -5 12 -12z m169 -18 c2 -26 -12 -33 -28 -14 -10 13 -10 17 2 25 21 13
25 11 26 -11z m-142 -10 c3 -5 -1 -10 -9 -10 -9 0 -16 5 -16 10 0 6 4 10 9 10
6 0 13 -4 16 -10z m82 -2 c24 -32 23 -49 -5 -59 -15 -6 -34 -17 -44 -25 -14
-13 -20 -14 -40 -2 l-23 13 28 3 c15 2 27 7 27 11 0 5 10 11 22 14 18 5 19 9
9 21 -13 15 -8 36 8 36 5 0 13 -6 18 -12z m183 -8 c0 -5 -4 -10 -10 -10 -5 0
-10 5 -10 10 0 6 5 10 10 10 6 0 10 -4 10 -10z m-3905 -30 c3 -5 -3 -10 -14
-10 -12 0 -21 5 -21 10 0 6 6 10 14 10 8 0 18 -4 21 -10z m93 -26 c18 -8 35
-20 38 -26 4 -6 3 -9 -2 -6 -5 2 -24 11 -41 18 -18 8 -33 18 -33 22 0 11 2 10
38 -8z m3502 -4 c0 -5 -4 -10 -10 -10 -5 0 -10 5 -10 10 0 6 5 10 10 10 6 0
10 -4 10 -10z m-3367 -50 c24 -25 26 -30 11 -30 -18 0 -64 37 -64 52 0 17 26
7 53 -22z m5387 -206 c0 -2 -11 2 -25 8 -14 6 -25 15 -25 20 0 5 11 1 25 -8
14 -9 25 -18 25 -20z m955 -134 c3 -5 -1 -10 -10 -10 -9 0 -13 5 -10 10 3 6 8
10 10 10 2 0 7 -4 10 -10z m63 -18 c3 -9 -2 -13 -14 -10 -9 1 -19 9 -22 16 -3
9 2 13 14 10 9 -1 19 -9 22 -16z m436 -62 c54 -23 59 -34 14 -27 -43 6 -89 28
-82 38 8 13 17 11 68 -11z m86 -120 c0 -5 25 -10 55 -10 48 0 55 -3 55 -19 0
-11 5 -23 11 -27 11 -6 -90 -51 -181 -79 -24 -8 -90 -19 -145 -26 -96 -10
-159 -31 -192 -64 -17 -17 -153 -21 -153 -5 0 6 -11 10 -24 10 -14 0 -28 5
-31 11 -12 18 4 23 31 10 23 -10 30 -9 50 10 13 12 41 23 67 26 31 4 54 14 76
35 19 18 40 28 54 27 31 -4 70 11 85 32 8 12 31 21 62 25 27 4 55 13 61 20 6
8 21 14 33 14 11 0 28 5 36 10 20 13 50 13 50 0z m-687 -191 c-17 -17 -83 -20
-83 -3 0 10 13 14 47 14 33 0 44 -3 36 -11z m-5323 -840 c0 -24 -23 -21 -28 4
-2 10 3 17 12 17 10 0 16 -9 16 -21z m60 -56 c0 -12 -6 -23 -12 -26 -9 -3 -7
-9 7 -20 22 -17 15 -33 -10 -23 -23 8 -30 36 -16 58 10 17 9 22 -6 34 -15 12
-16 15 -4 23 18 12 40 -14 41 -46z m68 16 c9 -15 21 -20 37 -17 13 3 28 2 33
-1 14 -8 19 -46 7 -48 -6 -1 -9 4 -9 12 2 13 -29 13 -73 0 -7 -2 -19 2 -27 10
-11 12 -12 20 -3 40 15 30 19 31 35 4z m182 -54 c0 -8 -2 -15 -4 -15 -2 0 -6
7 -10 15 -3 8 -1 15 4 15 6 0 10 -7 10 -15z m-6553 -172 c-3 -3 -11 -2 -17 2
-9 6 -9 10 1 16 14 8 27 -7 16 -18z m8123 -59 c0 -14 -3 -14 -15 -4 -8 7 -15
14 -15 16 0 2 7 4 15 4 8 0 15 -7 15 -16z m123 -197 c-10 -16 -33 24 -33 57
l1 31 19 -39 c11 -21 17 -43 13 -49z m46 -137 c0 -10 -6 -8 -19 9 -12 14 -20
37 -19 60 l0 36 19 -45 c10 -25 19 -52 19 -60z m-2502 -182 c-3 -8 -6 -5 -6 6
-1 11 2 17 5 13 3 -3 4 -12 1 -19z m2993 -112 c0 -8 -4 -17 -9 -21 -12 -7 -24
12 -16 25 9 15 25 12 25 -4z m-90 -38 c0 -6 -7 -19 -15 -28 -13 -15 -13 -21 5
-57 10 -22 31 -48 45 -57 28 -19 33 -46 8 -46 -21 0 -83 59 -83 79 0 9 -7 25
-15 35 -22 29 -19 66 4 66 10 0 22 7 25 16 6 16 26 10 26 -8z m-9180 -60 c0
-6 -6 -5 -15 2 -8 7 -15 27 -15 44 l1 31 14 -34 c8 -18 15 -38 15 -43z m9240
48 c0 -3 -4 -8 -10 -11 -5 -3 -10 -1 -10 4 0 6 5 11 10 11 6 0 10 -2 10 -4z
m-9340 -116 c0 -15 -38 -32 -45 -20 -3 5 -3 15 0 20 8 13 45 13 45 0z m-226
-86 c25 -10 19 -21 -14 -26 -16 -3 -30 -3 -30 -2 0 1 3 9 6 18 7 17 14 19 38
10z m536 -128 c0 -3 -4 -8 -10 -11 -5 -3 -10 -1 -10 4 0 6 5 11 10 11 6 0 10
-2 10 -4z m6097 -62 c-9 -9 -28 6 -21 18 4 6 10 6 17 -1 6 -6 8 -13 4 -17z
m773 -14 c0 -5 -5 -10 -11 -10 -5 0 -7 5 -4 10 3 6 8 10 11 10 2 0 4 -4 4 -10z
m-400 -141 c0 -6 -4 -7 -10 -4 -5 3 -10 11 -10 16 0 6 5 7 10 4 6 -3 10 -11
10 -16z m-6740 -38 c0 -6 -4 -13 -10 -16 -5 -3 -10 1 -10 9 0 9 5 16 10 16 6
0 10 -4 10 -9z m186 -49 c-18 -16 -18 -16 -6 6 6 13 14 21 18 18 3 -4 -2 -14
-12 -24z m6689 18 c3 -5 1 -10 -4 -10 -6 0 -11 5 -11 10 0 6 2 10 4 10 3 0 8
-4 11 -10z m-7469 -422 c-1 -50 -6 -73 -15 -76 -10 -3 -12 1 -8 13 9 22 0 36
-18 29 -8 -4 -12 -10 -9 -15 3 -6 1 -16 -5 -23 -9 -11 -8 -14 6 -12 11 0 17
-5 14 -14 -2 -8 -4 -20 -4 -27 0 -7 -3 -12 -6 -11 -3 0 -16 -3 -28 -7 -27 -9
-31 -35 -5 -36 13 0 12 -3 -6 -11 -12 -6 -25 -21 -28 -34 -3 -13 -11 -21 -19
-18 -28 11 -27 -19 1 -43 29 -25 29 -25 4 -19 -35 8 -68 -17 -50 -39 14 -16
40 -20 40 -6 0 5 -6 11 -12 14 -7 2 -11 7 -8 10 3 3 13 -1 24 -8 17 -13 17
-15 2 -30 -18 -18 -22 -60 -6 -70 6 -3 10 -14 10 -23 -1 -16 -2 -16 -14 1 -14
18 -32 24 -21 7 3 -5 1 -10 -5 -10 -6 0 -15 11 -22 25 -8 19 -8 28 2 40 11 14
10 17 -9 22 -20 5 -22 11 -18 40 4 19 12 42 19 50 6 8 13 20 15 27 13 58 24
88 51 132 17 28 39 66 47 85 31 66 60 109 75 109 5 0 7 -32 6 -72z m6674 -139
c6 -10 9 -19 6 -19 -9 0 -36 31 -36 41 0 14 18 1 30 -22z m-6242 -64 c-16 -13
-28 -29 -28 -34 0 -6 -13 -30 -30 -54 -16 -25 -30 -49 -30 -55 0 -5 -7 -15
-16 -23 -13 -10 -19 -10 -36 0 -11 7 -22 10 -25 7 -3 -3 2 -8 11 -12 20 -8 21
-57 1 -74 -15 -12 -29 -11 -70 6 -19 8 -19 7 -3 -18 21 -32 7 -48 -36 -45 -39
3 -58 -27 -31 -47 15 -12 17 -16 5 -17 -79 -6 -101 -6 -106 3 -4 6 0 14 7 19
12 7 12 12 1 30 -11 18 -11 20 0 16 25 -9 50 13 44 39 -7 26 11 33 32 12 9 -9
12 -8 12 4 0 9 -5 20 -10 23 -6 4 -8 11 -5 16 8 12 55 12 55 -1 0 -5 4 -10 9
-10 5 0 7 9 4 21 -6 23 15 69 32 69 6 0 24 14 40 30 35 36 59 40 50 8 -5 -18
-4 -20 4 -8 6 8 11 25 11 37 0 13 10 27 23 34 12 6 30 20 40 30 10 11 30 19
45 19 l27 -1 -27 -24z m9276 -80 c-4 -8 -11 -15 -16 -15 -6 0 -5 6 2 15 7 8
14 15 16 15 2 0 1 -7 -2 -15z m396 -84 c0 -5 -7 -14 -15 -21 -13 -10 -15 -9
-15 9 0 12 6 21 15 21 8 0 15 -4 15 -9z m-10190 -30 c0 -14 -18 -23 -30 -16
-6 4 -8 11 -5 16 8 12 35 12 35 0z m10160 -27 c0 -9 -5 -34 -12 -56 -9 -29 -9
-41 0 -50 19 -19 13 -52 -12 -70 -26 -19 -22 -27 -42 72 -5 23 -3 30 9 30 23
0 29 16 15 40 -11 18 -10 23 6 36 26 18 36 18 36 -2z m-10280 -12 c0 -10 16
-32 35 -48 19 -16 35 -32 35 -35 0 -3 -11 -11 -24 -18 -31 -17 -74 2 -56 25
10 11 9 15 -3 20 -17 6 -31 49 -22 64 10 17 35 11 35 -8z m258 -29 c-2 -10
-12 -19 -23 -21 -11 -3 -24 -11 -28 -18 -9 -16 -27 -10 -27 9 0 14 48 46 68
47 8 0 12 -8 10 -17z m-68 -133 c0 -4 -9 -10 -20 -13 -15 -4 -20 -14 -20 -36
0 -17 -4 -31 -10 -31 -13 0 -13 7 1 70 11 50 12 51 30 34 10 -9 19 -20 19 -24z
m-120 4 c0 -8 -4 -12 -10 -9 -5 3 -10 10 -10 16 0 5 5 9 10 9 6 0 10 -7 10
-16z m-14 -69 c-2 -6 2 -19 10 -30 19 -26 18 -35 -6 -35 -17 0 -18 -5 -13 -52
5 -37 3 -49 -5 -44 -7 4 -12 11 -12 16 0 5 -11 21 -25 36 -21 23 -24 33 -19
58 4 17 9 51 10 76 1 25 3 47 3 50 1 3 15 -11 32 -30 16 -19 28 -39 25 -45z
m199 55 c3 -5 -3 -18 -15 -30 -11 -11 -20 -27 -20 -36 0 -9 -7 -14 -17 -12
-25 5 -22 31 5 43 12 5 22 18 22 27 0 19 15 24 25 8z m9975 -24 c0 -2 -7 -9
-15 -16 -12 -10 -15 -10 -15 4 0 9 7 16 15 16 8 0 15 -2 15 -4z m-55 -76 c-4
-12 -9 -19 -12 -17 -3 3 -2 15 2 27 4 12 9 19 12 17 3 -3 2 -15 -2 -27z
m-10008 -16 c-3 -3 -12 -4 -19 -1 -8 3 -5 6 6 6 11 1 17 -2 13 -5z m-178 -76
c-3 -29 2 -40 16 -34 8 3 15 1 15 -4 0 -6 0 -13 0 -17 0 -10 -68 -14 -75 -4
-2 5 2 14 10 21 8 7 15 21 15 31 0 11 5 19 10 19 6 0 10 -6 9 -12z m6351 -53
c18 -9 31 -11 35 -5 10 16 35 12 35 -6 0 -11 -6 -15 -20 -11 -11 3 -23 1 -26
-4 -3 -5 -13 -9 -22 -9 -9 0 -30 -7 -46 -15 -15 -8 -40 -15 -55 -15 -30 0 -54
-7 -166 -48 -61 -23 -90 -28 -120 -23 l-39 6 27 18 c15 9 40 16 56 15 15 -1
40 6 54 15 15 9 35 17 47 17 11 0 20 4 20 10 0 19 38 30 66 20 18 -7 30 -7 39
0 7 6 17 10 21 9 20 -3 54 14 54 27 0 18 4 17 40 -1z m-6390 -39 c0 -3 -4 -8
-10 -11 -5 -3 -10 -1 -10 4 0 6 5 11 10 11 6 0 10 -2 10 -4z m257 -13 c3 -10
15 -28 26 -41 37 -41 -16 -56 -65 -19 -9 7 -20 25 -23 39 -5 20 -3 27 12 31
34 9 44 7 50 -10z m5863 -3 c0 -5 -7 -10 -15 -10 -8 0 -15 5 -15 10 0 6 7 10
15 10 8 0 15 -4 15 -10z m-370 -75 c-9 -11 -30 -15 -74 -14 l-61 1 50 13 c28
7 61 14 74 14 20 1 21 -1 11 -14z m-770 -164 c0 -12 -26 -21 -63 -21 -38 0
-25 17 18 23 17 2 33 5 38 6 4 0 7 -3 7 -8z m60 -11 c0 -5 -7 -10 -15 -10 -8
0 -15 5 -15 10 0 6 7 10 15 10 8 0 15 -4 15 -10z m-1686 -106 c24 -9 19 -31
-9 -38 -13 -3 -41 -17 -61 -31 -20 -14 -41 -25 -45 -25 -5 0 -9 -11 -9 -25 0
-14 -3 -25 -8 -25 -4 0 -12 -10 -17 -22 -11 -26 -55 -38 -55 -15 0 8 11 18 24
21 13 3 26 15 29 26 7 26 -1 25 -30 -2 -13 -12 -23 -17 -23 -11 0 6 -11 8 -24
6 -20 -4 -23 -2 -19 19 8 44 46 80 85 83 20 2 51 10 70 18 60 28 70 30 92 21z
m1126 -3 c0 -13 -28 -22 -35 -11 -3 4 1 11 7 13 20 8 28 8 28 -2z m-1022 -17
c12 -4 22 -10 22 -15 0 -13 -23 -10 -44 6 -21 16 -15 18 22 9z m552 -12 c0 -8
-28 -27 -73 -50 -16 -8 -32 -25 -38 -38 -5 -14 -29 -45 -54 -70 -25 -26 -45
-54 -45 -65 0 -10 -4 -21 -10 -24 -5 -3 -10 -15 -10 -26 0 -19 -37 -42 -52
-32 -5 2 -8 20 -8 38 0 26 6 39 25 51 13 8 36 36 50 60 14 24 33 44 41 44 8 0
17 7 20 15 4 8 12 15 19 15 7 0 15 9 18 19 2 11 27 31 53 45 53 27 64 30 64
18z m-355 -21 c-9 -15 -86 -54 -93 -47 -10 10 31 46 62 55 35 9 41 7 31 -8z
m619 -60 c3 -5 -5 -24 -18 -44 -31 -46 -40 -74 -37 -119 2 -30 -1 -38 -14 -38
-20 0 -12 -32 17 -70 25 -32 9 -36 -41 -10 -27 13 -41 27 -41 40 0 11 4 20 8
20 11 0 35 87 28 99 -7 11 14 48 54 99 26 33 35 37 44 23z m-2264 -13 c0 -6
-7 -19 -16 -29 -18 -20 -10 -46 9 -31 21 16 76 20 81 5 3 -7 18 -13 32 -13 44
0 22 -10 -26 -12 -33 -1 -44 -6 -48 -21 -4 -16 -11 -18 -41 -12 -40 7 -75 34
-53 42 6 3 12 13 12 24 0 11 6 28 12 39 14 22 38 27 38 8z m1500 -15 c0 -13
-33 -43 -48 -43 -12 0 -10 6 8 25 23 24 40 32 40 18z m-1580 -41 c0 -5 -9 -17
-20 -27 -17 -16 -24 -16 -47 -6 -20 9 -24 14 -13 21 7 4 19 6 27 3 7 -3 13 0
13 6 0 6 9 11 20 11 11 0 20 -4 20 -8z m2740 -218 c0 -8 -4 -12 -10 -9 -5 3
-10 10 -10 16 0 5 5 9 10 9 6 0 10 -7 10 -16z m-3405 -26 c-4 -13 -10 -41 -14
-63 -4 -22 -12 -49 -18 -60 -6 -11 -14 -42 -18 -70 -3 -27 -10 -59 -15 -70
-13 -32 -38 -149 -33 -155 2 -3 11 4 19 14 17 24 34 11 33 -24 0 -14 0 -44 0
-67 0 -31 -4 -45 -18 -52 -10 -6 -22 -7 -26 -3 -4 4 -2 -3 6 -15 16 -26 1
-120 -19 -115 -17 3 -15 -25 3 -35 8 -5 15 -20 15 -33 0 -14 0 -42 0 -62 0
-27 -5 -40 -20 -48 -26 -14 -26 -33 0 -25 24 8 26 -7 4 -30 -13 -13 -14 -21
-5 -43 13 -34 8 -90 -14 -135 -13 -27 -14 -40 -6 -55 11 -21 5 -52 -12 -63 -4
-3 -1 -23 8 -45 9 -21 15 -52 14 -69 -4 -58 10 -99 64 -183 27 -42 30 -61 7
-47 -32 20 -109 193 -95 215 4 6 2 17 -4 23 -14 18 -22 226 -9 251 8 15 7 22
-6 32 -15 11 -15 18 -2 85 8 41 17 120 20 177 6 98 18 135 43 132 18 -2 13 29
-6 40 -12 6 -21 7 -21 1 0 -5 -10 -7 -21 -4 -19 5 -19 7 -5 15 12 7 14 13 6
29 -16 30 -30 23 -30 -16 0 -36 -13 -47 -24 -19 -10 26 -7 54 7 60 8 3 12 16
9 32 -2 18 2 33 12 41 9 8 16 26 16 42 0 15 5 31 10 34 6 3 10 24 10 45 0 26
8 48 23 67 27 32 57 141 57 205 0 47 22 88 47 88 11 0 14 -6 8 -22z m3473 -50
c9 -15 13 -30 9 -34 -7 -7 -57 44 -57 59 0 18 32 1 48 -25z m-1863 -8 c3 -5 2
-10 -4 -10 -5 0 -13 5 -16 10 -3 6 -2 10 4 10 5 0 13 -4 16 -10z m-1580 -1550
c8 -13 -5 -13 -25 0 -13 8 -13 10 2 10 9 0 20 -4 23 -10z m2735 -620 c0 -5 -5
-10 -11 -10 -5 0 -7 5 -4 10 3 6 8 10 11 10 2 0 4 -4 4 -10z m230 -4 c0 -3 -4
-8 -10 -11 -5 -3 -10 -1 -10 4 0 6 5 11 10 11 6 0 10 -2 10 -4z m-269 -83 c-5
-10 -9 -21 -10 -25 -1 -10 -11 -9 -31 2 -13 8 -12 11 5 24 28 22 48 21 36 -1z
m-379 -101 c16 -27 16 -30 0 -45 -15 -16 -14 -17 12 -17 27 0 28 2 22 34 -6
31 -5 33 21 31 16 -1 38 -3 51 -3 24 -2 31 -22 8 -22 -8 0 -16 -7 -20 -15 -7
-20 18 -19 35 1 24 30 119 2 119 -35 0 -4 -13 -12 -29 -19 -24 -11 -33 -11
-51 0 -17 11 -22 11 -30 -2 -6 -9 -26 -15 -52 -16 -46 -1 -92 -16 -103 -33 -4
-8 -12 -8 -26 0 -15 7 -29 7 -52 -1 -27 -9 -34 -8 -44 7 -16 21 -16 30 -3 38
8 5 8 11 0 20 -11 13 -47 -2 -113 -48 -29 -21 -47 -16 -47 14 0 12 -7 19 -20
19 -14 0 -20 -7 -20 -22 0 -15 -3 -19 -10 -12 -31 31 46 74 85 47 30 -20 45
-16 51 16 7 33 29 48 38 25 7 -19 26 -18 26 1 0 8 7 15 15 15 8 0 15 -8 15
-19 0 -25 47 -35 59 -12 5 9 6 22 3 30 -3 8 0 11 7 7 7 -5 11 2 11 18 0 34 22
33 42 -2z m580 -5 c15 -12 14 -15 -13 -32 -16 -11 -29 -26 -29 -32 0 -16 -16
-17 -25 -2 -4 6 2 20 13 32 11 12 17 28 15 35 -6 16 17 15 39 -1z m-1222 -25
c14 -6 33 -13 43 -16 19 -6 23 -41 6 -51 -5 -4 -19 1 -29 10 -16 15 -22 16
-35 5 -18 -15 -19 -15 -34 29 -15 46 -14 53 7 42 9 -5 28 -13 42 -19z m1160
23 c0 -3 -7 -17 -16 -30 -9 -13 -13 -29 -9 -35 4 -6 -4 -10 -18 -10 -31 0 -43
26 -16 33 12 3 17 11 13 20 -3 10 1 17 13 20 28 7 33 7 33 2z m165 -5 c3 -5
-3 -10 -15 -10 -12 0 -18 5 -15 10 3 6 10 10 15 10 5 0 12 -4 15 -10z m-1085
-40 c0 -5 -4 -10 -9 -10 -6 0 -13 5 -16 10 -3 6 1 10 9 10 9 0 16 -4 16 -10z
m12410 -4100 c0 -19 40 -50 63 -50 22 0 24 -4 23 -47 -1 -46 -2 -48 -29 -46
-16 1 -25 -2 -21 -8 3 -5 0 -16 -6 -24 -7 -8 -9 -15 -6 -15 4 0 2 -9 -4 -19
-7 -14 -7 -22 0 -26 16 -10 7 -328 -9 -333 -19 -6 -31 19 -20 39 6 12 4 33 -6
62 -8 25 -13 51 -10 59 3 7 -1 36 -10 63 -8 28 -15 60 -15 72 0 13 -14 33 -35
49 -28 21 -43 25 -69 21 -22 -3 -42 0 -55 10 -12 8 -27 13 -34 10 -18 -7 -59
11 -52 23 4 6 16 8 27 4 18 -5 20 -3 15 15 -5 20 -2 21 31 16 77 -12 142 -29
142 -37 0 -4 7 -8 16 -8 13 0 15 7 9 40 -5 30 -1 52 16 90 21 46 39 65 39 40z
m-2318 -66 c4 -3 53 -7 110 -10 56 -2 146 -9 198 -15 109 -14 99 -14 209 -5
46 3 87 3 93 0 10 -7 -26 -45 -60 -63 -13 -7 -49 -12 -80 -11 -31 0 -106 1
-167 1 -82 0 -113 3 -125 14 -20 18 -71 20 -88 3 -8 -8 -19 -5 -44 14 -22 16
-53 28 -90 32 -60 8 -71 17 -40 35 18 11 75 15 84 5z m1219 -13 c9 0 19 -10
22 -21 4 -16 14 -20 46 -20 51 0 54 -16 4 -22 -24 -3 -47 1 -61 10 -16 10 -36
13 -67 9 -25 -4 -45 -3 -45 2 0 5 -20 8 -45 6 -31 -2 -45 1 -45 10 0 19 97 33
191 26z m322 -19 c7 -5 21 -12 32 -14 19 -5 19 -5 1 -13 -11 -5 -31 -4 -48 3
-24 9 -33 8 -48 -5 -10 -9 -17 -20 -14 -25 9 -14 -13 -9 -26 7 -7 9 -21 13
-35 9 -18 -4 -23 -1 -27 20 -3 14 0 28 6 30 18 9 146 -1 159 -12z m187 -15 c0
-5 8 -3 18 5 12 11 24 13 40 7 22 -8 31 -29 12 -29 -5 0 -10 6 -10 13 0 8 -3
7 -10 -3 -7 -11 -28 -15 -78 -15 -63 0 -68 2 -58 17 16 26 86 30 86 5z m265 1
c6 -6 -3 -7 -25 -3 -19 3 -54 2 -77 -3 -34 -8 -43 -7 -43 3 0 23 122 25 145 3z
m-1270 2 c-3 -5 -18 -10 -33 -9 l-27 1 25 8 c35 11 42 11 35 0z m1264 -38 c-7
-2 -19 -11 -26 -19 -6 -8 -16 -12 -22 -8 -16 9 -13 28 3 22 8 -3 17 1 20 8 3
9 12 12 23 8 13 -5 14 -8 2 -11z m-1374 -2 c3 -5 1 -10 -4 -10 -6 0 -11 5 -11
10 0 6 2 10 4 10 3 0 8 -4 11 -10z m-665 -170 c56 -14 85 -31 101 -62 15 -28
-23 -43 -60 -23 -32 16 -189 20 -225 6 -25 -10 -50 -85 -36 -110 5 -11 10 -33
10 -49 0 -17 9 -37 25 -52 22 -21 34 -23 137 -24 l113 -1 47 -39 c26 -22 50
-46 53 -54 8 -22 -15 -133 -36 -167 -11 -18 -36 -38 -61 -49 -24 -9 -60 -25
-81 -33 -34 -15 -39 -15 -55 0 -10 9 -31 15 -47 14 -20 -1 -30 3 -30 12 0 10
19 15 71 17 98 5 146 23 156 59 4 16 11 31 16 34 14 9 -1 103 -18 111 -47 23
-94 32 -170 35 -111 4 -150 21 -178 77 -44 92 -54 125 -47 159 16 83 52 124
117 135 18 3 53 9 78 13 25 5 50 7 55 6 6 -1 35 -8 65 -15z m2896 6 c45 -1 54
-5 87 -40 20 -21 36 -48 36 -60 0 -11 2 -31 6 -43 5 -16 3 -23 -6 -23 -8 0
-31 -20 -52 -45 -21 -25 -45 -45 -53 -45 -21 0 -17 9 16 40 37 35 38 59 3 92
-73 68 -184 66 -260 -5 -17 -16 -29 -35 -27 -42 3 -7 -3 -20 -13 -30 -29 -30
-41 -67 -30 -97 5 -16 15 -28 21 -28 7 0 18 -11 24 -25 10 -22 9 -25 -9 -25
-19 0 -18 -3 10 -39 17 -21 31 -43 31 -49 0 -5 19 -22 42 -38 38 -27 49 -29
127 -29 47 0 112 4 144 8 71 9 77 -8 15 -44 -39 -22 -53 -24 -145 -22 -111 2
-151 15 -179 59 -9 13 -22 23 -28 21 -13 -4 -35 22 -36 42 0 8 -8 23 -17 33
-13 14 -14 23 -7 35 11 17 -7 87 -27 108 -12 12 -12 72 1 80 6 3 10 17 10 31
0 38 25 78 69 113 46 37 159 82 181 73 8 -3 38 -6 66 -6z m-868 -20 c16 -8 35
-22 42 -31 8 -9 30 -25 49 -35 43 -22 86 -66 96 -97 3 -13 10 -23 15 -23 5 0
12 -17 16 -37 4 -21 10 -45 15 -55 6 -11 4 -18 -6 -21 -12 -5 -12 -11 2 -38
13 -25 13 -36 4 -51 -6 -10 -8 -30 -5 -45 6 -21 4 -25 -9 -20 -9 3 -18 1 -21
-6 -3 -7 -4 20 -2 59 3 87 -6 118 -34 111 -22 -6 -56 26 -45 42 10 17 -4 51
-21 51 -16 0 -19 27 -3 32 16 5 -133 98 -158 98 -12 0 -25 5 -28 10 -7 12 -37
9 -78 -8 -16 -7 -34 -12 -41 -12 -7 0 -19 -12 -26 -26 -8 -14 -26 -32 -41 -41
-32 -19 -64 -69 -49 -78 5 -3 10 -13 10 -21 0 -8 -4 -12 -10 -9 -5 3 -15 3
-20 0 -6 -4 2 -18 20 -35 33 -31 38 -64 15 -90 -14 -15 -14 -19 1 -31 9 -7 28
-12 43 -11 22 2 30 -4 43 -33 15 -33 15 -35 -3 -35 -10 0 -21 5 -24 10 -3 6
-19 10 -35 10 -31 0 -37 5 -74 62 -62 93 -70 153 -32 228 9 18 16 39 16 46 0
17 110 114 130 114 9 0 20 3 24 8 33 33 166 38 224 8z m-1418 -10 c19 -21 24
-23 36 -11 19 19 110 9 146 -16 14 -11 34 -19 45 -19 22 -1 97 -86 88 -100 -9
-15 -51 -12 -65 5 -10 12 -10 18 1 32 12 15 12 16 -7 11 -12 -3 -30 0 -40 5
-10 6 -48 13 -83 14 -41 2 -71 9 -82 19 -15 14 -18 13 -33 -7 -10 -15 -12 -28
-6 -39 8 -14 23 -154 23 -205 -2 -144 -7 -255 -12 -255 -3 0 -16 3 -29 6 -21
6 -22 11 -21 78 3 145 -1 235 -11 241 -6 3 -10 29 -10 56 0 28 -5 59 -10 70
-18 33 -29 113 -18 126 17 21 63 15 88 -11z m863 -3 c25 -3 43 -13 53 -29 19
-27 10 -51 -12 -33 -8 6 -32 13 -55 14 -47 4 -133 -42 -184 -97 -89 -95 -54
-260 70 -339 59 -37 165 -71 217 -70 38 1 59 -13 33 -23 -8 -3 -59 -1 -112 3
-76 7 -110 15 -150 36 -29 16 -53 34 -53 42 0 7 -7 16 -16 20 -22 8 -59 44
-73 70 -6 13 -17 57 -25 99 -18 109 -9 136 84 235 l76 80 54 -2 c30 0 72 -3
93 -6z m-512 -169 c11 -14 10 -18 -6 -30 -10 -8 -24 -14 -31 -14 -18 0 -26 30
-13 46 15 18 34 18 50 -2z m1447 -91 c-2 -17 -9 -28 -18 -28 -19 0 -26 35 -8
46 23 15 29 10 26 -18z m482 17 c0 -5 -6 -10 -14 -10 -7 0 -19 -7 -26 -15 -14
-16 -50 -21 -50 -6 0 7 37 24 88 40 1 1 2 -3 2 -9z m-1920 -50 c0 -11 -8 -24
-17 -27 -10 -4 -23 -14 -30 -22 -24 -31 -9 12 20 57 12 19 27 14 27 -8z m1214
-26 c4 -10 1 -14 -6 -12 -15 5 -23 28 -10 28 5 0 13 -7 16 -16z m556 6 c0 -5
-4 -10 -9 -10 -6 0 -13 5 -16 10 -3 6 1 10 9 10 9 0 16 -4 16 -10z m-337 -32
c5 -37 0 -51 -14 -43 -12 8 -12 75 0 75 5 0 11 -15 14 -32z m-209 -58 c3 -19
3 -28 -1 -20 -3 8 -13 20 -21 26 -10 7 -13 18 -8 29 9 24 22 9 30 -35z m-1264
30 c0 -5 -4 -10 -10 -10 -5 0 -10 5 -10 10 0 6 5 10 10 10 6 0 10 -4 10 -10z
m7 -62 c-4 -24 -22 -35 -31 -19 -9 14 4 41 20 41 9 0 13 -8 11 -22z m-18 -62
c-3 -3 -15 -3 -27 1 -18 4 -20 8 -11 20 11 12 14 12 28 -1 8 -9 13 -18 10 -20z
m1299 -8 c-4 -27 -28 -36 -28 -10 0 20 8 32 22 32 5 0 8 -10 6 -22z m-348 -6
c0 -14 -11 -21 -26 -15 -21 8 -17 23 6 23 11 0 20 -4 20 -8z m-1550 -52 c0
-28 -34 -64 -53 -57 -17 7 -23 43 -9 63 18 28 62 23 62 -6z m460 4 c0 -8 -5
-12 -10 -9 -6 4 -8 11 -5 16 9 14 15 11 15 -7z m294 -7 c6 -9 7 -19 3 -23 -9
-10 -48 26 -41 38 8 12 25 6 38 -15z m-1236 -24 c2 -9 -8 -13 -32 -13 -20 0
-36 4 -36 9 0 22 60 25 68 4z m781 -47 c-1 -12 3 -34 10 -50 10 -24 9 -32 -5
-47 -16 -17 -16 -20 -1 -37 11 -12 13 -22 7 -32 -5 -8 -7 -23 -4 -32 7 -22
-33 -68 -40 -47 -3 8 -5 25 -6 39 0 14 -3 51 -6 83 -3 33 -2 57 3 57 11 0 10
56 -2 83 -4 9 -4 25 0 35 6 15 8 15 26 -7 11 -14 19 -34 18 -45z m0 -323 c3
-111 2 -141 -6 -172 -7 -30 -10 -32 -22 -17 -16 18 -7 82 12 90 9 3 9 7 1 13
-23 17 -34 89 -17 116 13 21 31 4 32 -30z m5 -251 c12 -42 0 -84 -22 -80 -12
2 -18 15 -20 47 -2 24 -1 50 2 58 9 23 30 10 40 -25z m4 -177 c-1 -19 1 -37 5
-41 3 -4 1 -16 -5 -28 -7 -11 -11 -45 -11 -73 1 -29 -2 -53 -6 -53 -15 0 -29
25 -28 50 0 14 -2 39 -6 55 -6 24 -3 36 13 52 11 13 20 36 20 53 0 19 4 29 10
25 6 -4 9 -22 8 -40z"/>
<path d="M8947 18163 c-14 -13 -6 -24 15 -21 27 4 36 28 11 28 -11 0 -23 -3
-26 -7z"/>
<path d="M8940 17899 c0 -5 5 -7 10 -4 6 3 10 8 10 11 0 2 -4 4 -10 4 -5 0
-10 -5 -10 -11z"/>
<path d="M12645 15849 c-10 -31 4 -239 18 -263 10 -18 13 -9 20 59 4 44 6 101
3 128 -3 26 -1 47 4 47 18 0 10 29 -9 40 -27 14 -29 13 -36 -11z"/>
<path d="M13495 15790 c3 -5 16 -10 28 -10 18 0 19 2 7 10 -20 13 -43 13 -35
0z"/>
<path d="M13555 15760 c3 -5 8 -10 11 -10 2 0 4 5 4 10 0 6 -5 10 -11 10 -5 0
-7 -4 -4 -10z"/>
<path d="M13601 15736 c13 -14 81 -56 89 -56 23 0 7 21 -30 40 -35 18 -71 27
-59 16z"/>
<path d="M13730 15655 c0 -8 8 -15 19 -15 10 0 24 -7 31 -15 7 -8 20 -15 29
-14 14 0 13 2 -2 12 -10 7 -28 20 -39 30 -26 21 -38 22 -38 2z"/>
<path d="M13900 15570 c8 -5 20 -10 25 -10 6 0 3 5 -5 10 -8 5 -19 10 -25 10
-5 0 -3 -5 5 -10z"/>
<path d="M12685 15503 c10 -79 25 -146 34 -157 5 -6 17 -40 26 -76 15 -59 38
-100 54 -100 11 0 5 68 -7 82 -6 7 -20 47 -31 88 -12 40 -25 78 -31 84 -5 5
-10 20 -10 32 0 23 -27 94 -36 94 -3 0 -2 -21 1 -47z"/>
<path d="M14085 15470 c3 -5 11 -10 16 -10 6 0 7 5 4 10 -3 6 -11 10 -16 10
-6 0 -7 -4 -4 -10z"/>
<path d="M10516 15425 c10 -8 24 -14 29 -14 6 0 1 6 -9 14 -11 8 -24 15 -30
15 -5 0 -1 -7 10 -15z"/>
<path d="M10608 15374 c6 -3 10 -10 7 -15 -3 -4 6 -11 20 -15 14 -3 25 -12 25
-19 0 -7 18 -15 43 -18 29 -4 47 -13 57 -29 12 -19 60 -71 128 -140 28 -28 53
-55 104 -115 78 -92 152 -133 259 -146 103 -12 130 -4 197 57 90 84 103 141
52 242 -16 32 -56 86 -89 119 -50 50 -68 62 -113 72 -45 10 -55 10 -64 -2 -6
-8 -21 -15 -32 -15 -11 0 -27 -7 -36 -15 -8 -8 -20 -15 -26 -15 -6 0 -39 -9
-73 -21 -50 -17 -75 -20 -132 -15 -38 4 -80 13 -92 21 -13 9 -44 18 -70 21
-27 3 -60 14 -74 24 -15 10 -44 21 -65 24 -22 3 -33 3 -26 0z m772 -119 c32
-17 40 -49 15 -59 -22 -8 -18 -21 10 -34 21 -10 25 -18 25 -57 0 -39 -3 -45
-25 -51 -14 -3 -25 -9 -25 -13 0 -14 -52 -31 -110 -38 -54 -5 -61 -3 -120 33
-71 44 -110 89 -110 127 0 15 -4 27 -10 27 -17 0 -11 17 8 24 9 3 24 11 33 17
24 18 48 4 64 -36 15 -36 42 -54 115 -79 l42 -14 36 35 c30 31 33 37 20 47
-16 12 -38 49 -38 65 0 5 8 12 18 14 9 3 18 5 20 6 2 0 16 -6 32 -14z"/>
<path d="M14602 15290 c-10 -16 -10 -20 2 -20 19 0 27 13 17 28 -4 8 -11 5
-19 -8z"/>
<path d="M8430 14190 c0 -5 7 -10 16 -10 8 0 12 5 9 10 -3 6 -10 10 -16 10 -5
0 -9 -4 -9 -10z"/>
<path d="M8560 14095 c7 -8 16 -15 21 -15 5 0 9 7 9 15 0 9 -9 15 -21 15 -18
0 -19 -2 -9 -15z"/>
<path d="M15455 14410 c3 -5 8 -10 11 -10 2 0 4 5 4 10 0 6 -5 10 -11 10 -5 0
-7 -4 -4 -10z"/>
<path d="M15440 14344 c0 -8 5 -12 10 -9 6 3 10 10 10 16 0 5 -4 9 -10 9 -5 0
-10 -7 -10 -16z"/>
<path d="M3497 8214 c-4 -4 -7 -14 -7 -23 0 -11 3 -12 11 -4 6 6 10 16 7 23
-2 6 -7 8 -11 4z"/>
<path d="M3496 8145 c4 -8 8 -15 10 -15 2 0 4 7 4 15 0 8 -4 15 -10 15 -5 0
-7 -7 -4 -15z"/>
<path d="M3470 7681 c0 -5 7 -14 15 -21 16 -14 18 -10 9 14 -6 17 -24 22 -24
7z"/>
<path d="M17750 1924 c0 -8 5 -12 10 -9 6 4 8 11 5 16 -9 14 -15 11 -15 -7z"/>
<path d="M17270 1397 c0 -9 7 -14 15 -13 20 3 20 20 1 24 -9 2 -16 -3 -16 -11z"/>
</g>
</svg>
